<svg width="390" height="380" viewBox="0 0 390 380" fill="none" xmlns="http://www.w3.org/2000/svg">
<g clip-path="url(#clip0_571_11)">
<path d="M237.114 113.286L303.147 47.2528C303.945 46.4553 304.96 45.9077 306.072 45.6741C307.185 45.4405 308.349 45.5305 309.429 45.9337C310.509 46.3368 311.459 47.0364 312.169 47.9505C312.879 48.8645 313.319 49.9553 313.438 51.095L321.098 124.788C321.188 125.667 321.086 126.55 320.796 127.375C320.507 128.2 320.038 128.946 319.422 129.562C318.807 130.177 318.061 130.646 317.236 130.935C316.411 131.225 315.528 131.328 314.649 131.237L240.956 123.577C239.816 123.458 238.725 123.018 237.811 122.308C236.897 121.598 236.198 120.648 235.795 119.568C235.391 118.488 235.301 117.324 235.535 116.211C235.769 115.099 236.316 114.084 237.114 113.286ZM86.8534 332.489L152.887 266.456C153.684 265.658 154.232 264.643 154.465 263.53C154.699 262.418 154.609 261.254 154.206 260.174C153.802 259.094 153.103 258.143 152.189 257.433C151.275 256.723 150.184 256.283 149.044 256.165L75.3514 248.505C74.4724 248.414 73.5893 248.517 72.7644 248.807C71.9394 249.096 71.193 249.565 70.5777 250.18C69.9625 250.795 69.4935 251.542 69.2041 252.367C68.9146 253.192 68.8117 254.075 68.9026 254.954L76.5623 328.647C76.6809 329.786 77.1209 330.877 77.8309 331.791C78.5409 332.705 79.4914 333.405 80.5712 333.808C81.651 334.211 82.8154 334.301 83.928 334.068C85.0406 333.834 86.0553 333.287 86.8534 332.489Z" fill="#F4F6FB"/>
<path fill-rule="evenodd" clip-rule="evenodd" d="M108.821 103.692C82.7574 129.756 71.6333 165.252 75.3823 199.8C75.6094 201.403 75.513 203.026 75.099 204.574C74.6849 206.122 73.9615 207.562 72.9719 208.81C71.9823 210.058 70.7467 211.087 69.3384 211.837C67.9302 212.587 66.3781 213.042 64.7745 213.176C63.1709 213.309 61.5485 213.117 60.0038 212.613C58.459 212.108 57.0235 211.301 55.7825 210.238C54.5415 209.176 53.5205 207.88 52.7801 206.428C52.0396 204.976 51.5949 203.398 51.4724 201.787C48.4896 174.211 53.4703 146.565 65.8221 122.136C78.1739 97.7069 97.377 77.5231 121.147 63.9852C144.918 50.4473 172.255 44.1251 199.908 45.7704C227.561 47.4158 254.365 56.9595 277.133 73.2664L260.054 90.3457C236.714 74.7606 208.916 67.5766 181.359 70.0085C153.803 72.4404 128.18 84.339 108.821 103.692ZM129.946 289.396C149.062 302.154 171.258 309.334 193.969 310.109C216.681 310.883 238.981 305.22 258.294 293.773C277.607 282.327 293.144 265.564 303.111 245.421C313.077 225.278 317.067 202.577 314.618 179.941C314.391 178.339 314.487 176.716 314.901 175.168C315.315 173.62 316.038 172.179 317.028 170.932C318.018 169.684 319.253 168.654 320.662 167.904C322.07 167.155 323.622 166.699 325.226 166.566C326.829 166.433 328.452 166.624 329.996 167.129C331.541 167.634 332.977 168.441 334.217 169.504C335.458 170.566 336.48 171.862 337.22 173.314C337.96 174.766 338.405 176.344 338.528 177.955C341.51 205.531 336.53 233.177 324.178 257.606C311.826 282.035 292.623 302.219 268.853 315.757C245.082 329.295 217.745 335.617 190.092 333.971C162.439 332.326 135.635 322.782 112.867 306.475L129.946 289.396Z" fill="#F4F6FB"/>
</g>
<path d="M195 134.7C161.88 134.7 135 161.75 135 195.079C135 228.408 161.88 255.457 195 255.457C228.12 255.457 255 228.408 255 195.079C255 161.75 228.12 134.7 195 134.7ZM195 243.382C168.54 243.382 147 221.706 147 195.079C147 168.452 168.54 146.776 195 146.776C221.46 146.776 243 168.452 243 195.079C243 221.706 221.46 243.382 195 243.382ZM162 228.287L207.06 207.215L228 161.871L182.94 182.943L162 228.287ZM195 188.437C198.66 188.437 201.6 191.396 201.6 195.079C201.6 198.762 198.66 201.72 195 201.72C191.34 201.72 188.4 198.762 188.4 195.079C188.4 191.396 191.34 188.437 195 188.437Z" fill="#59C49E"/>
<defs>
<clipPath id="clip0_571_11">
<rect width="380" height="390" fill="white" transform="translate(390) rotate(90)"/>
</clipPath>
</defs>
</svg>
