<svg width="90" height="90" viewBox="0 0 90 90" fill="none" xmlns="http://www.w3.org/2000/svg">
<rect width="90" height="90" rx="45" fill="#ECF7FD"/>
<path d="M39.0037 51.0129L23.8184 36.011C22.8286 35.0212 21.5125 34.476 20.1128 34.476C19.1512 34.476 18.2292 34.7332 17.4253 35.2153V17.1556C17.4253 16.2337 17.1851 15.3671 16.7656 14.6139C17.0445 14.5181 17.3372 14.4689 17.632 14.4682C19.1139 14.4682 20.3194 15.6739 20.3194 17.1557V30.4293C20.3194 30.7679 20.4539 31.0926 20.6933 31.332C20.9327 31.5714 21.2574 31.7059 21.5959 31.7059C21.9345 31.7059 22.2592 31.5714 22.4986 31.332C22.738 31.0926 22.8725 30.7679 22.8725 30.4293V17.1557C22.8725 14.266 20.5217 11.9151 17.632 11.9151C16.6708 11.914 15.728 12.1785 14.9076 12.6793C14.0879 12.1785 13.1457 11.914 12.1851 11.9151C9.29546 11.9151 6.94452 14.266 6.94452 17.1568L6.96671 42.329C6.9678 43.4568 7.3853 45.0489 7.93796 46.0321C7.94686 46.0479 7.95593 46.0634 7.96577 46.0787L23.6892 71.4584C24.0208 72.0623 24.3198 73.2125 24.3198 73.8903V78.701C24.3198 79.0396 24.4543 79.3643 24.6937 79.6037C24.9331 79.8431 25.2578 79.9776 25.5964 79.9776C25.935 79.9776 26.2597 79.8431 26.4991 79.6037C26.7385 79.3643 26.873 79.0396 26.873 78.701V73.8903C26.873 72.7621 26.4559 71.1696 25.9031 70.1861C25.8943 70.1703 25.8851 70.1548 25.8755 70.1395L10.1516 44.7596C9.81999 44.1553 9.52046 43.0048 9.51968 42.3267L9.49749 17.1556C9.49749 15.6737 10.703 14.4681 12.1848 14.4681C13.6667 14.4681 14.8722 15.6737 14.8722 17.1556V39.7168C14.8722 39.7487 14.8747 39.7798 14.877 39.8109C14.9003 41.1214 15.4095 42.4246 16.4072 43.4225L28.6039 55.6192C28.8433 55.8586 29.168 55.9931 29.5065 55.9931C29.8451 55.9931 30.1698 55.8586 30.4092 55.6192C30.6486 55.3798 30.7831 55.0551 30.7831 54.7165C30.7831 54.378 30.6486 54.0533 30.4092 53.8139L18.2126 41.617C17.9623 41.368 17.7638 41.0718 17.6287 40.7456C17.4936 40.4194 17.4245 40.0696 17.4255 39.7165C17.4255 38.9987 17.7051 38.3239 18.2126 37.8162C18.7201 37.3085 19.3951 37.029 20.113 37.029C20.8308 37.029 21.5056 37.3087 22.0186 37.8217L37.2039 52.8236C38.8926 54.5123 40.3192 57.9565 40.3192 60.3448V78.7234C40.3192 79.062 40.4537 79.3867 40.6931 79.6261C40.9325 79.8655 41.2572 80 41.5958 80C41.9343 80 42.259 79.8655 42.4984 79.6261C42.7378 79.3867 42.8723 79.062 42.8723 78.7234V60.3448C42.8723 57.2814 41.1755 53.1846 39.0037 51.0129ZM77.8151 11.9148C76.8546 11.9137 75.9124 12.1782 75.0928 12.679C74.2724 12.1782 73.3296 11.9138 72.3684 11.9148C69.4787 11.9148 67.1278 14.2657 67.1278 17.1554V30.429C67.1278 30.7676 67.2623 31.0923 67.5017 31.3317C67.7411 31.5711 68.0658 31.7056 68.4044 31.7056C68.7429 31.7056 69.0676 31.5711 69.307 31.3317C69.5464 31.0923 69.6809 30.7676 69.6809 30.429V17.1554C69.6809 15.6735 70.8866 14.4679 72.3683 14.4679C72.667 14.4679 72.9584 14.5196 73.2345 14.6135C72.8011 15.3905 72.574 16.2656 72.5748 17.1553V35.215C71.7709 34.7331 70.8489 34.4757 69.8873 34.4757C68.4875 34.4757 67.1714 35.0209 66.1872 36.0053L50.9909 51.0181C48.8247 53.1843 47.1278 57.281 47.1278 60.3445V78.7234C47.1278 79.062 47.2623 79.3867 47.5017 79.6261C47.7411 79.8655 48.0658 80 48.4044 80C48.7429 80 49.0676 79.8655 49.307 79.6261C49.5464 79.3867 49.6809 79.062 49.6809 78.7234V60.3448C49.6809 57.9567 51.1075 54.5125 52.7908 52.8292L67.987 37.8164C68.236 37.566 68.5322 37.3676 68.8583 37.2325C69.1845 37.0973 69.5343 37.0282 69.8873 37.0292C70.2404 37.0282 70.5901 37.0973 70.9163 37.2325C71.2425 37.3676 71.5387 37.566 71.7876 37.8164C72.038 38.0653 72.2364 38.3615 72.3716 38.6877C72.5067 39.0139 72.5758 39.3636 72.5748 39.7167C72.5748 40.4346 72.2951 41.1095 71.7876 41.6171L59.5909 53.8139C59.3515 54.0533 59.217 54.378 59.217 54.7165C59.217 55.0551 59.3515 55.3798 59.5909 55.6192C59.8303 55.8586 60.155 55.9931 60.4936 55.9931C60.8321 55.9931 61.1568 55.8586 61.3962 55.6192L73.593 43.4225C74.5908 42.4246 75.0998 41.1214 75.1231 39.8109C75.1253 39.7798 75.128 39.7484 75.128 39.7168V17.1556C75.128 15.6737 76.3336 14.4681 77.8153 14.4681C79.2972 14.4681 80.5028 15.6737 80.5028 17.1543L80.4806 42.3268C80.4801 43.005 80.1803 44.1554 79.8486 44.7598L64.1251 70.1393C64.1156 70.1546 64.1064 70.1703 64.0975 70.1859C63.5445 71.1693 63.1276 72.7617 63.1276 73.8901V78.7009C63.1276 79.0395 63.2621 79.3642 63.5015 79.6036C63.7409 79.843 64.0656 79.9775 64.4042 79.9775C64.7428 79.9775 65.0675 79.843 65.3069 79.6036C65.5463 79.3642 65.6808 79.0395 65.6808 78.7009V73.8901C65.6808 73.2121 65.9798 72.0621 66.3112 71.4582L82.0347 46.0786C82.0442 46.0632 82.0534 46.0476 82.0625 46.032C82.6153 45.0485 83.0328 43.4565 83.0337 42.3289L83.0559 17.1554C83.0556 14.2659 80.7048 11.9148 77.8151 11.9148Z" fill="#3E596C"/>
<path d="M63.2978 9.36172C63.6363 9.36172 63.961 9.22722 64.2005 8.98782C64.4399 8.74842 64.5743 8.42372 64.5743 8.08516V1.27656C64.5743 0.937997 64.4399 0.613298 64.2005 0.373897C63.961 0.134495 63.6363 0 63.2978 0H26.7022C26.3636 0 26.0389 0.134495 25.7995 0.373897C25.5601 0.613298 25.4256 0.937997 25.4256 1.27656V8.085C25.4256 8.42356 25.5601 8.74826 25.7995 8.98767C26.0389 9.22707 26.3636 9.36156 26.7022 9.36156H27.1276V11.9147H26.7022C26.3636 11.9147 26.0389 12.0492 25.7995 12.2886C25.5601 12.528 25.4256 12.8527 25.4256 13.1913V20C25.4256 20.3386 25.5601 20.6633 25.7995 20.9027C26.0389 21.1421 26.3636 21.2766 26.7022 21.2766H27.1276V23.8297H26.7022C26.3636 23.8297 26.0389 23.9642 25.7995 24.2036C25.5601 24.443 25.4256 24.7677 25.4256 25.1062V31.9147C25.4256 32.2533 25.5601 32.578 25.7995 32.8174C26.0389 33.0568 26.3636 33.1912 26.7022 33.1912H63.2979C63.6365 33.1912 63.9612 33.0568 64.2006 32.8174C64.44 32.578 64.5745 32.2533 64.5745 31.9147V25.1062C64.5745 24.7677 64.44 24.443 64.2006 24.2036C63.9612 23.9642 63.6365 23.8297 63.2979 23.8297H62.8725V21.2766H63.2979C63.6365 21.2766 63.9612 21.1421 64.2006 20.9027C64.44 20.6633 64.5745 20.3386 64.5745 20V13.1916C64.5745 12.853 64.44 12.5283 64.2006 12.2889C63.9612 12.0495 63.6365 11.915 63.2979 11.915H62.8725V9.36188L63.2978 9.36172ZM62.0212 30.6383H27.9787V26.383H62.0212V30.6383ZM62.0212 18.7234H56.4893C56.1508 18.7234 55.8261 18.8579 55.5867 19.0973C55.3473 19.3367 55.2128 19.6614 55.2128 20C55.2128 20.3386 55.3473 20.6633 55.5867 20.9027C55.8261 21.1421 56.1508 21.2766 56.4893 21.2766H60.3192V23.8297H29.6808V21.2766H51.3829C51.7215 21.2766 52.0462 21.1421 52.2856 20.9027C52.525 20.6633 52.6595 20.3386 52.6595 20C52.6595 19.6614 52.525 19.3367 52.2856 19.0973C52.0462 18.8579 51.7215 18.7234 51.3829 18.7234H27.9787V14.4681H62.0212V18.7234ZM29.6808 11.9148V9.36172H60.319V11.9148H29.6808ZM62.0212 6.80844H27.9787V2.55312H62.0212V6.80844Z" fill="#59C49E"/>
</svg>
