<svg xmlns="http://www.w3.org/2000/svg" width="60" height="60" fill="none"><g fill="#fff" clip-path="url(#a)"><path d="M53.75 10h-5.417v3.333h5V50H6.667V13.333h5V10H6.25a2.967 2.967 0 0 0-2.917 3.017v37.3a2.966 2.966 0 0 0 2.917 3.016h47.5a2.968 2.968 0 0 0 2.917-3.016v-37.3A2.967 2.967 0 0 0 53.75 10Z"/><path d="M13.334 23.333h3.333v3.334h-3.334v-3.334ZM23.334 23.333h3.333v3.334h-3.334v-3.334ZM33.334 23.333h3.333v3.334h-3.334v-3.334ZM43.334 23.333h3.333v3.334h-3.334v-3.334ZM13.334 31.667h3.333V35h-3.334v-3.333ZM23.334 31.667h3.333V35h-3.334v-3.333ZM33.334 31.667h3.333V35h-3.334v-3.333ZM43.334 31.667h3.333V35h-3.334v-3.333ZM13.334 40h3.333v3.333h-3.334V40ZM23.334 40h3.333v3.333h-3.334V40ZM33.334 40h3.333v3.333h-3.334V40ZM43.334 40h3.333v3.333h-3.334V40ZM16.667 16.667A1.667 1.667 0 0 0 18.333 15V5A1.667 1.667 0 0 0 15 5v10a1.667 1.667 0 0 0 1.667 1.667ZM43.333 16.667A1.667 1.667 0 0 0 45 15V5a1.667 1.667 0 0 0-3.334 0v10a1.667 1.667 0 0 0 1.667 1.667ZM21.666 10h16.667v3.333H21.667V10Z"/></g><defs><clipPath id="a"><path fill="#fff" d="M0 0h60v60H0z"/></clipPath></defs></svg>