<svg xmlns="http://www.w3.org/2000/svg" width="15" height="15" fill="none"><path fill="#59C49E" d="M4.304 14c.638 0 1.155-.501 1.155-1.119s-.517-1.119-1.155-1.119-1.156.501-1.156 1.12c0 .617.518 1.118 1.156 1.118ZM11.237 14c.638 0 1.155-.501 1.155-1.119s-.517-1.119-1.155-1.119-1.156.501-1.156 1.12c0 .617.518 1.118 1.156 1.118Z"/><path fill="#59C49E" fill-rule="evenodd" d="M0 2.81C0 2.364.375 2 .837 2h1.54c.4 0 .744.273.822.652l.327 1.586h9.637c.262 0 .51.12.668.322a.79.79 0 0 1 .137.711l-1.54 5.222a.834.834 0 0 1-.806.588H3.92a.83.83 0 0 1-.821-.652L1.692 3.621H.837A.824.824 0 0 1 0 2.811Zm3.861 3.05.744 3.6h6.386l1.062-3.6H3.86Z" clip-rule="evenodd"/></svg>