<svg xmlns="http://www.w3.org/2000/svg" width="120" height="120" fill="none"><rect width="117" height="117" x="1.5" y="1.5" fill="#fff" stroke="#ECF7FD" stroke-dasharray="6 6" stroke-width="3" rx="58.5"/><path fill="#3E596C" d="M31.005 92h4v4a4 4 0 0 0 4 4h48a4 4 0 0 0 4-4V32a4 4 0 0 0-4-4h-4v-4a4 4 0 0 0-4-4H41.673c-.028 0-.053.015-.081.016a1.346 1.346 0 0 0-.349.07c-.04.014-.08.024-.12.043a1.294 1.294 0 0 0-.393.267L27.396 33.73a1.334 1.334 0 0 0-.267.39c-.019.042-.029.084-.044.127-.038.11-.061.225-.068.342 0 .03-.017.055-.017.084V88a3.999 3.999 0 0 0 4.005 4Zm56-61.333c.737 0 1.333.597 1.333 1.333v64a1.332 1.332 0 0 1-1.332 1.334h-48A1.334 1.334 0 0 1 37.672 96v-4h41.334a4 4 0 0 0 4-4V30.667h4ZM80.34 24v64a1.333 1.333 0 0 1-1.333 1.334h-48A1.335 1.335 0 0 1 29.671 88V36h9.334a4 4 0 0 0 4-4v-9.333h36c.736 0 1.333.596 1.333 1.333Zm-40 .552V32c0 .736-.597 1.333-1.333 1.333h-7.448l8.78-8.781Z"/><path fill="#59C49E" fill-rule="evenodd" d="M36.339 42.667a1.333 1.333 0 1 0 0 2.666h37.333a1.333 1.333 0 1 0 0-2.666H36.339Zm37.333 26.666H36.34a1.333 1.333 0 0 0 0 2.667h37.333a1.333 1.333 0 1 0 0-2.667Zm0-20h-6.666a1.333 1.333 0 1 0 0 2.667h6.666a1.333 1.333 0 1 0 0-2.667Zm-12 1.334c0-.736-.596-1.334-1.333-1.334h-24a1.333 1.333 0 1 0 0 2.667h24a1.334 1.334 0 0 0 1.333-1.333ZM52.34 76h-1.334a1.334 1.334 0 0 0 0 2.666h1.334a1.333 1.333 0 0 0 0-2.666Zm-8 0h-8a1.331 1.331 0 0 0-1.334 1.333c0 .736.597 1.333 1.334 1.333h8a1.333 1.333 0 1 0 0-2.666Zm-8-17.334h6.666a1.334 1.334 0 0 0 0-2.666H36.34a1.331 1.331 0 0 0-1.334 1.333c0 .736.597 1.333 1.334 1.333ZM73.672 56h-24a1.335 1.335 0 0 0-.952 2.281 1.335 1.335 0 0 0 .952.385h24a1.333 1.333 0 0 0 0-2.666ZM36.34 65.333h4a1.333 1.333 0 0 0 0-2.666h-4a1.333 1.333 0 1 0 0 2.666Zm10.667 0h16a1.334 1.334 0 0 0 0-2.666h-16a1.333 1.333 0 1 0 0 2.666Zm26.666-2.666h-4a1.333 1.333 0 1 0 0 2.666h4a1.334 1.334 0 0 0 0-2.666Z" clip-rule="evenodd"/></svg>