<svg width="90" height="90" viewBox="0 0 90 90" fill="none" xmlns="http://www.w3.org/2000/svg">
<rect width="90" height="90" rx="45" fill="white"/>
<g clip-path="url(#clip0_569_4)">
<path d="M89.8532 18.9702C89.7166 18.4632 89.4815 17.9879 89.1613 17.5717C88.841 17.1555 88.4419 16.8064 87.9868 16.5445C87.5314 16.2812 87.0286 16.1104 86.5071 16.0417C85.9856 15.973 85.4557 16.0079 84.9477 16.1442C83.9233 16.4199 83.0504 17.0913 82.5209 18.0106L81.8544 19.1704C81.5498 18.9955 81.1886 18.9479 80.8492 19.0379C80.5097 19.1278 80.2195 19.3481 80.0415 19.6508L76.6554 25.4225L75.4956 24.7559C75.3434 24.6679 75.1754 24.6108 75.0011 24.5878C74.8268 24.5649 74.6497 24.5767 74.4799 24.6224C74.3102 24.6684 74.1512 24.7474 74.012 24.855C73.8728 24.9625 73.7562 25.0965 73.6689 25.2492C73.3076 25.8866 73.5276 26.6962 74.1623 27.0622L75.3223 27.7287L63.9909 47.3654L61.1914 54.8444L59.8583 57.3368C59.476 58.0016 59.2929 58.7621 59.3307 59.528C59.3685 60.2938 59.6257 61.0326 60.0716 61.6564L57.0721 65.3355L56.2324 63.2297C56.0469 62.7697 55.7367 62.3705 55.3368 62.0772C54.9368 61.7838 54.4629 61.6079 53.9685 61.5691C53.4739 61.5302 52.9784 61.63 52.5375 61.8574C52.0966 62.0847 51.7279 62.4306 51.4729 62.8561L50.9931 63.6693L50.54 58.3368C50.4894 57.7249 50.2292 57.1492 49.8034 56.7069C49.3776 56.2645 48.8122 55.9826 48.2026 55.9088C47.593 55.8352 46.9766 55.9743 46.4576 56.3026C45.9387 56.6308 45.5489 57.1281 45.3541 57.7105L42.0746 67.5488C41.9647 67.8829 41.9912 68.247 42.1485 68.5617C42.3059 68.8764 42.5812 69.1161 42.9145 69.2286C43.0445 69.2894 43.1846 69.3254 43.3278 69.3348C43.6072 69.3356 43.8799 69.2486 44.1072 69.086C44.3345 68.9234 44.505 68.6935 44.5946 68.4288L47.8602 58.5905L48.3269 64.0025C48.3736 64.5652 48.5978 65.0985 48.967 65.5257C49.3363 65.9528 49.8316 66.2517 50.3817 66.3792C50.9317 66.5068 51.508 66.4564 52.0276 66.2354C52.5471 66.0144 52.9831 65.6342 53.2727 65.1495L53.766 64.3358L54.5928 66.4293C54.7652 66.8629 55.0485 67.2437 55.4142 67.5335C55.7799 67.8234 56.2153 68.0121 56.6768 68.0809C57.1384 68.1497 57.6099 68.0961 58.0442 67.9256C58.4786 67.755 58.8605 67.4733 59.1519 67.1088L62.258 63.1765C62.6018 63.2663 62.9558 63.3111 63.3112 63.3098C64.0133 63.3152 64.7046 63.1357 65.3153 62.7893C65.9261 62.4429 66.4349 61.9418 66.7906 61.3363L68.1237 59.11L73.2028 52.9381L84.654 33.061L85.8138 33.7275C85.9669 33.815 86.1011 33.932 86.2086 34.0716C86.3161 34.2113 86.3948 34.3709 86.4402 34.5412C86.4859 34.7105 86.4977 34.8871 86.4749 35.0609C86.4521 35.2347 86.3952 35.4023 86.3074 35.5541L80.975 44.7928C80.8754 44.9429 80.8072 45.1117 80.7747 45.2889C80.7422 45.466 80.746 45.648 80.7859 45.8237C80.8257 45.9993 80.9008 46.1651 81.0066 46.3109C81.1124 46.4567 81.2466 46.5796 81.4013 46.672C81.5534 46.7604 81.7214 46.8177 81.8958 46.8407C82.0702 46.8638 82.2474 46.8521 82.4172 46.8062C82.587 46.7604 82.7461 46.6814 82.8852 46.5738C83.0243 46.4662 83.1408 46.3321 83.2278 46.1793L88.5602 36.9407C88.8236 36.4853 88.9944 35.9824 89.063 35.4609C89.1316 34.9393 89.0966 34.4093 88.96 33.9014C88.6842 32.877 88.0129 32.0042 87.0936 31.4748L85.9338 30.8082L89.2666 25.0359C89.6304 24.4023 89.4162 23.5939 88.7867 23.2228L89.4532 22.063C89.7237 21.6006 89.8985 21.0885 89.9672 20.5572C90.0359 20.0259 89.9971 19.4863 89.8532 18.9702ZM84.8273 19.3435C84.9148 19.1905 85.0317 19.0564 85.1714 18.9488C85.311 18.8413 85.4706 18.7626 85.6409 18.7171C85.9832 18.6324 86.345 18.6801 86.6537 18.8506C86.8067 18.938 86.9409 19.0549 87.0485 19.1944C87.1561 19.3339 87.235 19.4934 87.2806 19.6636C87.3653 20.006 87.3176 20.3677 87.1471 20.6764L86.4806 21.8364L84.1606 20.5033L84.8273 19.3435ZM66.6571 56.564L65.9906 56.1774L64.0176 55.0304L65.9106 49.9649L70.1097 52.3909L66.6571 56.564ZM62.6578 60.4163C62.386 60.227 62.1945 59.9432 62.1206 59.6203C62.0468 59.2975 62.0958 58.9586 62.2582 58.67L62.9248 57.5105L65.244 58.8436L64.5775 59.9899C64.4852 60.1501 64.3605 60.2894 64.2114 60.3989C64.0624 60.5084 63.8922 60.5857 63.7116 60.6258C63.5311 60.6659 63.3441 60.668 63.1627 60.6319C62.9813 60.5959 62.8093 60.5224 62.6578 60.4163ZM71.6296 50.2051L67.0171 47.5389L77.6819 29.0615L82.2944 31.7277L71.6296 50.2051ZM83.6275 29.4216L79.015 26.7554L81.6812 22.1429L86.2938 24.8091L83.6275 29.4216Z" fill="#3E596C"/>
<path d="M15.3325 63.336C15.3325 69.5946 20.4058 74.6674 26.6639 74.6674C32.922 74.6674 37.9953 69.5946 37.9953 63.336C37.9953 62.9825 37.8549 62.6434 37.6049 62.3934C37.3549 62.1434 37.0158 62.0029 36.6622 62.0029C36.3086 62.0029 35.9696 62.1434 35.7196 62.3934C35.4696 62.6434 35.3291 62.9825 35.3291 63.336C35.3291 68.1215 31.4496 72.0012 26.6639 72.0012C21.8782 72.0012 17.9987 68.1215 17.9987 63.336C17.9987 58.5505 21.8782 54.6708 26.6639 54.6708C28.5397 54.6654 30.3657 55.2741 31.863 56.404C32.0031 56.5091 32.1624 56.5855 32.332 56.629C32.5016 56.6724 32.678 56.682 32.8513 56.6572C33.0246 56.6325 33.1913 56.5738 33.3419 56.4846C33.4925 56.3953 33.6241 56.2773 33.729 56.1373C33.8342 55.9973 33.9107 55.8379 33.9542 55.6683C33.9977 55.4988 34.0074 55.3223 33.9827 55.1489C33.958 54.9756 33.8994 54.8089 33.8102 54.6582C33.721 54.5075 33.603 54.3759 33.4629 54.2709C31.7794 53.0082 29.7776 52.2393 27.6817 52.0503C25.5858 51.8613 23.4787 52.2596 21.5965 53.2007C19.7142 54.1418 18.1313 55.5885 17.0249 57.3786C15.9185 59.1687 15.3325 61.2315 15.3325 63.3359V63.336ZM57.9919 10.6784C58.3455 10.6784 58.6845 10.5379 58.9345 10.2879C59.1846 10.0379 59.325 9.69881 59.325 9.34525C59.325 8.99169 59.1846 8.65261 58.9345 8.4026C58.6845 8.1526 58.3455 8.01215 57.9919 8.01215H23.3312C22.9776 8.01215 22.6385 8.1526 22.3885 8.4026C22.1385 8.65261 21.998 8.99169 21.998 9.34525V14.6777C21.998 15.4142 22.5949 16.0108 23.3312 16.0108H57.9919C58.3455 16.0108 58.6845 15.8703 58.9345 15.6203C59.1846 15.3703 59.325 15.0312 59.325 14.6777C59.325 14.3241 59.1846 13.985 58.9345 13.735C58.6845 13.485 58.3455 13.3446 57.9919 13.3446H24.6643V10.6784H57.9919ZM27.3305 18.677C26.9769 18.677 26.6378 18.8174 26.3878 19.0674C26.1378 19.3175 25.9974 19.6565 25.9974 20.0101C25.9974 20.3637 26.1378 20.7027 26.3878 20.9527C26.6378 21.2027 26.9769 21.3432 27.3305 21.3432H53.9926C54.3461 21.3432 54.6852 21.2027 54.9352 20.9527C55.1852 20.7027 55.3257 20.3637 55.3257 20.0101C55.3257 19.6565 55.1852 19.3175 54.9352 19.0674C54.6852 18.8174 54.3461 18.677 53.9926 18.677H27.3305ZM61.9912 28.0087H32.6629C32.3093 28.0087 31.9702 28.1492 31.7202 28.3992C31.4702 28.6492 31.3298 28.9883 31.3298 29.3418C31.3298 29.6954 31.4702 30.0345 31.7202 30.2845C31.9702 30.5345 32.3093 30.6749 32.6629 30.6749H61.9912C62.3448 30.6749 62.6839 30.5345 62.9339 30.2845C63.1839 30.0345 63.3243 29.6954 63.3243 29.3418C63.3243 28.9883 63.1839 28.6492 62.9339 28.3992C62.6839 28.1492 62.3448 28.0087 61.9912 28.0087ZM48.6602 37.3405C48.6602 36.9869 48.5197 36.6478 48.2697 36.3978C48.0197 36.1478 47.6806 36.0074 47.3271 36.0074H20.6649C20.3114 36.0074 19.9723 36.1478 19.7223 36.3978C19.4723 36.6478 19.3318 36.9869 19.3318 37.3405C19.3318 37.694 19.4723 38.0331 19.7223 38.2831C19.9723 38.5331 20.3114 38.6736 20.6649 38.6736H47.3271C48.0633 38.6736 48.6602 38.077 48.6602 37.3405ZM61.9912 36.0074H52.6595C52.3059 36.0074 51.9668 36.1478 51.7168 36.3978C51.4668 36.6478 51.3264 36.9869 51.3264 37.3405C51.3264 37.694 51.4668 38.0331 51.7168 38.2831C51.9668 38.5331 52.3059 38.6736 52.6595 38.6736H61.9912C62.3448 38.6736 62.6839 38.5331 62.9339 38.2831C63.1839 38.0331 63.3243 37.694 63.3243 37.3405C63.3243 36.9869 63.1839 36.6478 62.9339 36.3978C62.6839 36.1478 62.3448 36.0074 61.9912 36.0074ZM33.996 45.3391C34.3496 45.3391 34.6886 45.1987 34.9386 44.9486C35.1887 44.6986 35.3291 44.3596 35.3291 44.006C35.3291 43.6524 35.1887 43.3134 34.9386 43.0633C34.6886 42.8133 34.3496 42.6729 33.996 42.6729H20.6649C20.3114 42.6729 19.9723 42.8133 19.7223 43.0633C19.4723 43.3134 19.3318 43.6524 19.3318 44.006C19.3318 44.3596 19.4723 44.6986 19.7223 44.9486C19.9723 45.1987 20.3114 45.3391 20.6649 45.3391H33.996ZM39.3284 45.3391H48.6602C49.0137 45.3391 49.3528 45.1987 49.6028 44.9486C49.8528 44.6986 49.9933 44.3596 49.9933 44.006C49.9933 43.6524 49.8528 43.3134 49.6028 43.0633C49.3528 42.8133 49.0137 42.6729 48.6602 42.6729H39.3284C38.9749 42.6729 38.6358 42.8133 38.3858 43.0633C38.1358 43.3134 37.9953 43.6524 37.9953 44.006C37.9953 44.3596 38.1358 44.6986 38.3858 44.9486C38.6358 45.1987 38.9749 45.3391 39.3284 45.3391Z" fill="#59C49E"/>
<path d="M26.3176 64.4561L31.0361 59.7499C31.2912 59.5317 31.6192 59.4175 31.9546 59.4306C32.2901 59.4436 32.6082 59.5827 32.8456 59.8201C33.083 60.0574 33.2221 60.3756 33.2351 60.7111C33.2481 61.0465 33.1342 61.3745 32.9159 61.6296L28.2104 66.3488C27.7072 66.848 27.0256 67.126 26.3174 67.122C25.613 67.1228 24.9373 66.8449 24.4374 66.3488L21.6112 63.5226C21.4862 63.3987 21.387 63.2513 21.3193 63.0888C21.2516 62.9263 21.2168 62.7521 21.2168 62.5761C21.2168 62.4001 21.2516 62.2259 21.3193 62.0634C21.387 61.901 21.4862 61.7535 21.6112 61.6296C21.861 61.3813 22.1989 61.242 22.5511 61.242C22.9033 61.242 23.2412 61.3813 23.491 61.6296L26.3176 64.4561Z" fill="#59C49E"/>
<path d="M69.9897 61.3363C69.6362 61.3363 69.2971 61.4768 69.0471 61.7268C68.7971 61.9768 68.6566 62.3159 68.6566 62.6694V76.0005C68.6566 76.737 68.0597 77.3336 67.3235 77.3336H13.9993C13.2631 77.3336 12.6662 76.737 12.6662 76.0005V4.01281C12.6662 3.65924 12.8067 3.32016 13.0567 3.07016C13.3067 2.82015 13.6458 2.6797 13.9993 2.6797H67.3235C67.6771 2.6797 68.0162 2.82015 68.2662 3.07016C68.5162 3.32016 68.6566 3.65924 68.6566 4.01281V29.0485C68.6566 29.4021 68.7971 29.7412 69.0471 29.9912C69.2971 30.2412 69.6362 30.3816 69.9897 30.3816C70.3433 30.3816 70.6824 30.2412 70.9324 29.9912C71.1824 29.7412 71.3229 29.4021 71.3229 29.0485V4.01281C71.3229 1.80418 69.5322 0.0134888 67.3235 0.0134888H13.9993C11.7907 0.0134888 10 1.80418 10 4.01281V76.0005C10 78.2098 11.7907 79.9998 13.9993 79.9998H67.3235C69.5322 79.9998 71.3229 78.2098 71.3229 76.0005V62.6694C71.3229 62.3159 71.1824 61.9768 70.9324 61.7268C70.6824 61.4768 70.3433 61.3363 69.9897 61.3363Z" fill="#3E596C"/>
</g>
<defs>
<clipPath id="clip0_569_4">
<rect width="80" height="80" fill="white" transform="translate(10)"/>
</clipPath>
</defs>
</svg>
