<svg xmlns="http://www.w3.org/2000/svg" width="120" height="120" fill="none"><rect width="117" height="117" x="1.5" y="1.5" fill="#fff" stroke="#ECF7FD" stroke-dasharray="6 6" stroke-width="3" rx="58.5"/><path fill="#3E596C" d="M95.08 59.166 84.633 47.489a8.542 8.542 0 0 0-6.356-2.842h-9.353l.885-7.965a5.124 5.124 0 0 0-1.274-3.978A5.126 5.126 0 0 0 64.72 31H29.298a1.706 1.706 0 1 0 0 3.412H64.72c.491 0 .943.201 1.271.568.328.367.48.837.425 1.326L61.888 77.06h-9.431c-.041-2.05-.724-3.945-2.002-5.468-1.657-1.975-4.093-3.062-6.859-3.062-5.011 0-9.814 3.717-11.353 8.53H24.18a1.706 1.706 0 0 0 0 3.412h7.547c.04 2.05.724 3.944 2.002 5.468C35.386 87.913 37.82 89 40.587 89c5.012 0 9.815-3.716 11.354-8.53h16.462c.041 2.051.724 3.945 2.002 5.469C72.062 87.913 74.498 89 77.264 89c5.011 0 9.814-3.716 11.353-8.53h2.433a5.107 5.107 0 0 0 5.09-4.581l1.067-10.143a8.55 8.55 0 0 0-2.126-6.58ZM48.94 78.468c-.69 3.927-4.439 7.12-8.353 7.12-1.74 0-3.248-.655-4.245-1.842-1.027-1.224-1.417-2.887-1.1-4.684.692-3.927 4.44-7.12 8.354-7.12 1.74 0 3.248.654 4.245 1.842 1.026 1.223 1.417 2.887 1.1 4.684Zm36.677 0c-.691 3.927-4.44 7.12-8.353 7.12-1.74 0-3.248-.655-4.245-1.842-1.027-1.224-1.418-2.887-1.1-4.684.692-3.927 4.44-7.12 8.354-7.12 1.74 0 3.248.654 4.245 1.842 1.026 1.223 1.417 2.887 1.1 4.684Zm8.197-13.078-1.068 10.142a1.702 1.702 0 0 1-1.696 1.527h-1.917c-.04-2.05-.724-3.945-2.002-5.468-1.657-1.975-4.092-3.062-6.858-3.062-5.012 0-9.815 3.717-11.354 8.53h-3.598l3.223-29h9.732c1.454 0 2.845.622 3.814 1.706L92.54 61.44a5.138 5.138 0 0 1 1.275 3.949Zm-14.64-13.367a1.709 1.709 0 0 0-1.259-.552H73.65a1.706 1.706 0 0 0-1.7 1.564l-.852 10.235a1.706 1.706 0 0 0 1.7 1.848h14.5a1.707 1.707 0 0 0 1.258-2.858l-9.383-10.237Zm-4.522 9.683.568-6.824h1.945l6.254 6.824h-8.767ZM67.68 87.294A1.706 1.706 0 0 1 65.974 89h-7.676a1.706 1.706 0 1 1 0-3.412h7.676a1.706 1.706 0 0 1 1.706 1.706Zm-36.677 0A1.706 1.706 0 0 1 29.299 89h-4.265a1.706 1.706 0 1 1 0-3.412h4.265a1.706 1.706 0 0 1 1.706 1.706Z"/><path fill="#59C49E" d="M42.944 44.647h11.941a1.706 1.706 0 1 0 0-3.412h-11.94a1.706 1.706 0 1 0 0 3.412ZM31.503 44.148c.32.32.754.5 1.206.5h3.412a1.706 1.706 0 1 0 0-3.413h-3.412a1.706 1.706 0 0 0-1.206 2.913ZM52.68 51.97c-.32-.32-.754-.5-1.206-.5h-3.412a1.706 1.706 0 0 0 0 3.412h3.412a1.706 1.706 0 0 0 1.206-2.912ZM41.239 51.47H29.297a1.706 1.706 0 0 0 0 3.412H41.24a1.706 1.706 0 1 0 0-3.411ZM24.68 62.206a1.706 1.706 0 0 0 1.206 2.912h22.176a1.706 1.706 0 0 0 0-3.412H25.886c-.453 0-.887.18-1.207.5Z"/></svg>