<svg xmlns="http://www.w3.org/2000/svg" width="60" height="60" fill="none"><path fill="#fff" fill-rule="evenodd" d="M7.282 3.282A9.5 9.5 0 0 1 14 .5h32a9.5 9.5 0 0 1 9.5 9.5v40a9.5 9.5 0 0 1-9.5 9.5H14A9.5 9.5 0 0 1 4.5 50V10a9.5 9.5 0 0 1 2.782-6.718ZM14 3.5A6.5 6.5 0 0 0 7.5 10v40a6.5 6.5 0 0 0 6.5 6.5h32a6.5 6.5 0 0 0 6.5-6.5V10A6.5 6.5 0 0 0 46 3.5H14ZM12.5 18a1.5 1.5 0 0 1 1.5-1.5h4a1.5 1.5 0 0 1 0 3h-4a1.5 1.5 0 0 1-1.5-1.5Zm12 0a1.5 1.5 0 0 1 1.5-1.5h20a1.5 1.5 0 0 1 0 3H26a1.5 1.5 0 0 1-1.5-1.5Zm-12 12a1.5 1.5 0 0 1 1.5-1.5h4a1.5 1.5 0 0 1 0 3h-4a1.5 1.5 0 0 1-1.5-1.5Zm12 0a1.5 1.5 0 0 1 1.5-1.5h20a1.5 1.5 0 0 1 0 3H26a1.5 1.5 0 0 1-1.5-1.5Zm-12 12a1.5 1.5 0 0 1 1.5-1.5h4a1.5 1.5 0 0 1 0 3h-4a1.5 1.5 0 0 1-1.5-1.5Zm12 0a1.5 1.5 0 0 1 1.5-1.5h20a1.5 1.5 0 0 1 0 3H26a1.5 1.5 0 0 1-1.5-1.5Z" clip-rule="evenodd"/></svg>