<svg xmlns="http://www.w3.org/2000/svg" width="120" height="120" fill="none"><rect width="117" height="117" x="1.5" y="1.5" fill="#fff" stroke="#ECF7FD" stroke-dasharray="6 6" stroke-width="3" rx="58.5"/><path fill="#3E596C" d="M85.938 79.625 77.5 62.5l8.75-4.2-1.087-2.25-9.838 4.75a1.25 1.25 0 0 0-.575 1.675l.638 1.25c-1.8.163-4.9-.163-10-2.225a11.976 11.976 0 0 0-11.638 1.075 17.962 17.962 0 0 0-4.225 4.138 13.145 13.145 0 0 1-3.425-1.55l.3-.513a1.25 1.25 0 0 0-.462-1.713l-9.213-5.262-1.25 2.163 8.138 4.65-9.65 16.575-8.138-4.65-1.25 2.162 9.175 5.275a1.25 1.25 0 0 0 1.7-.462l.3-.513 2.388 1.763-.263.387a3.339 3.339 0 0 0-.537 2.5 3.374 3.374 0 0 0 1.412 2.2l.588.4c.562.388 1.229.598 1.912.6.096.006.192.006.288 0a3.238 3.238 0 0 0 1.25 1.85l.587.412c.56.385 1.222.59 1.9.588.208.02.417.02.625 0 .241-.048.476-.124.7-.225.25.424.587.79.988 1.075l.587.4a3.35 3.35 0 0 0 1.9.6h.3c.205.75.67 1.4 1.313 1.838l.575.4a3.4 3.4 0 0 0 4.7-.875l.35-.513 3.375 2.037a3.75 3.75 0 0 0 1.912.538 3.75 3.75 0 0 0 3.213-1.812c.23-.385.388-.809.462-1.25.333.098.678.149 1.025.15a3.75 3.75 0 0 0 3.213-1.813c.237-.405.398-.85.475-1.313.328.101.67.151 1.012.15a3.749 3.749 0 0 0 3.2-1.812c.217-.363.37-.76.45-1.175l.188.113c.58.35 1.246.535 1.925.537a3.75 3.75 0 0 0 3.212-1.813 3.75 3.75 0 0 0 .525-1.924 3.749 3.749 0 0 0-1.25-2.813 12.35 12.35 0 0 1 3.225-3.513L84.188 82a1.25 1.25 0 0 0 1.662.575l9.838-4.75-1.088-2.25-8.662 4.05Zm-43.913 8.213a.889.889 0 0 1-1.25.225l-.587-.4a.886.886 0 0 1-.225-1.25L41.8 83.75a.876.876 0 0 1 .563-.362.887.887 0 0 1 .662.15l.575.4a.789.789 0 0 1 .363.562.838.838 0 0 1-.138.662l-1.8 2.675Zm4.088 2.825a.875.875 0 0 1-.563.362.95.95 0 0 1-.662-.138l-.588-.4a.886.886 0 0 1-.225-1.25l2.5-3.662a.837.837 0 0 1 .563-.362h.162c.178 0 .352.051.5.15l.575.4a.912.912 0 0 1 .375.562.874.874 0 0 1-.15.662l-2.487 3.675Zm4.8 1.837a.889.889 0 0 1-1.25.225l-.588-.4a.913.913 0 0 1-.362-.562.95.95 0 0 1 .137-.663l1.813-2.625a.9.9 0 0 1 1.25-.237l.587.412a.887.887 0 0 1 .225 1.25l-1.812 2.6Zm5.2 1.25L55 95.275a.912.912 0 0 1-1.25.225l-.587-.4a.887.887 0 0 1-.225-1.25l1.112-1.612a.888.888 0 0 1 1.25-.225l.575.4a.889.889 0 0 1 .238 1.25v.087Zm22.825-6.25a1.25 1.25 0 0 1-.763.563 1.25 1.25 0 0 1-.937-.138l-7.5-4.487-1.25 2.137 4.262 2.5c.28.17.483.444.563.763.079.318.03.655-.138.937a1.25 1.25 0 0 1-.762.563 1.25 1.25 0 0 1-.938-.138l-5.325-3.213-1.25 2.138 3.2 1.925c.275.176.476.448.563.763a1.25 1.25 0 0 1-1.838 1.362L61.5 89.963 60.25 92.1l3.213 1.95a1.25 1.25 0 0 1-1.25 2.1L58.663 94c.136-.488.166-1 .087-1.5a3.375 3.375 0 0 0-1.4-2.175L56.725 90a3.302 3.302 0 0 0-1.35-.537 3.542 3.542 0 0 0 0-.725 3.31 3.31 0 0 0-1.412-2.175l-.575-.4a3.362 3.362 0 0 0-2.2-.575 3.338 3.338 0 0 0-1.363-1.838l-.587-.4a3.35 3.35 0 0 0-2.5-.537c-.24.048-.474.119-.7.212a3.477 3.477 0 0 0-.988-1.063l-.587-.4a3.388 3.388 0 0 0-4.7.863l-.125.188-2.5-1.876 7.725-13.374c1.016.639 2.102 1.159 3.237 1.55A15.975 15.975 0 0 0 45.663 75a2.825 2.825 0 0 0 2.362 2.65c2.275.6 6.575-.313 9.725-5L78.5 85.662a1.25 1.25 0 0 1 .613 1.063c0 .224-.06.445-.175.638v.137Zm-.725-5-9.2-5.763a10 10 0 0 0 3.362-3.174l-2.175-1.25a8.037 8.037 0 0 1-3.65 2.862l-8.537-5.35a1.25 1.25 0 0 0-1.422.065 1.25 1.25 0 0 0-.328.373c-2.088 3.687-5 5-6.838 5a1.85 1.85 0 0 1-1.25-.326 18.75 18.75 0 0 1 6.9-10.337 9.425 9.425 0 0 1 9.3-.85c5.125 2.088 9.188 2.838 12.1 2.275l5.938 12.063a15.112 15.112 0 0 0-4.2 4.412Z"/><path fill="#59C49E" d="m86.75 74.287 2.49-1.223 1.103 2.242-2.49 1.225-1.103-2.244ZM85 52.5V31.25a1.251 1.251 0 0 0-.362-.887l-8.75-8.75A1.25 1.25 0 0 0 75 21.25H37.5a2.5 2.5 0 0 0-2.5 2.5v30h2.5v-30h36.25V30a2.5 2.5 0 0 0 2.5 2.5h6.25v20H85ZM76.25 30v-4.488L80.737 30H76.25Z"/><path fill="#59C49E" d="M47.5 41.25a12.5 12.5 0 1 0 25 0 12.5 12.5 0 0 0-25 0Zm22.5 0a10 10 0 1 1-20 0 10 10 0 0 1 20 0Z"/><path fill="#59C49E" d="m55.363 41.063-1.775 1.774 3.1 3.088a1.25 1.25 0 0 0 1.762 0l7.963-7.95-1.775-1.725-7.063 7.075-2.212-2.263Z"/></svg>