<svg xmlns="http://www.w3.org/2000/svg" width="120" height="120" fill="none"><rect width="117" height="117" x="1.5" y="1.5" fill="#fff" stroke="#ECF7FD" stroke-dasharray="6 6" stroke-width="3" rx="58.5"/><path fill="#59C49E" d="M41.767 96.998c-.33 0-.653-.093-.933-.268-.73-.456-17.832-11.348-17.832-29.124 0-10.347 8.42-18.764 18.765-18.764S60.53 57.26 60.53 67.606c0 17.776-17.101 28.668-17.83 29.124-.28.175-.604.268-.934.268Zm0-44.632a15.26 15.26 0 0 0-15.241 15.24c0 13.56 11.792 23.021 15.24 25.495 3.451-2.476 15.241-11.936 15.241-25.495a15.26 15.26 0 0 0-15.24-15.24Z"/><path fill="#59C49E" fill-rule="evenodd" d="M36.247 67.047a5.53 5.53 0 0 0 5.52 5.52 5.53 5.53 0 0 0 5.52-5.52 5.53 5.53 0 0 0-5.52-5.52 5.53 5.53 0 0 0-5.52 5.52Zm5.52 8.81c-4.858 0-8.809-3.952-8.809-8.81 0-4.858 3.951-8.809 8.809-8.809 4.858 0 8.809 3.951 8.809 8.81 0 4.857-3.951 8.808-8.809 8.808Z" clip-rule="evenodd"/><path fill="#3E596C" d="M81.7 61.762c-.33 0-.653-.093-.932-.268-.583-.364-14.252-9.07-14.252-23.307 0-8.372 6.812-15.184 15.184-15.184s15.185 6.812 15.185 15.184c0 14.235-13.67 22.943-14.25 23.307-.28.175-.604.268-.935.268Zm0-35.236a11.674 11.674 0 0 0-11.66 11.66c0 10.266 8.74 17.532 11.66 19.67 2.92-2.138 11.661-9.404 11.661-19.67a11.675 11.675 0 0 0-11.66-11.66Z"/><path fill="#3E596C" d="M81.7 44.92c-3.528 0-6.396-2.874-6.396-6.4 0-3.526 2.868-6.4 6.397-6.4 3.528 0 6.398 2.872 6.398 6.4a6.406 6.406 0 0 1-6.398 6.4Zm0-9.277a2.878 2.878 0 0 0-2.872 2.875 2.878 2.878 0 0 0 2.873 2.875 2.878 2.878 0 0 0 0-5.75Zm5.22 61.355H52.882a1.762 1.762 0 1 1 0-3.524H86.92a6.54 6.54 0 0 0 2.819-12.452 1.763 1.763 0 0 1 1.503-3.19 10.077 10.077 0 0 1 5.756 9.09A10.089 10.089 0 0 1 86.92 96.999ZM75.224 80.484a9.86 9.86 0 0 1-6.984-2.875 9.893 9.893 0 0 1-2.955-7.085 9.866 9.866 0 0 1 2.913-7.024 9.986 9.986 0 0 1 4.92-2.687 1.763 1.763 0 0 1 .732 3.448 6.41 6.41 0 0 0-5.041 6.263 6.4 6.4 0 0 0 1.91 4.58c1.226 1.215 2.81 1.79 4.58 1.856l5.828-.047h.014a1.762 1.762 0 1 1 .015 3.524l-5.826.047h-.106Z"/><path fill="#3E596C" d="M85.84 85.252a6.465 6.465 0 0 1-6.46-6.46 6.465 6.465 0 0 1 6.46-6.46 6.465 6.465 0 0 1 6.46 6.46 6.465 6.465 0 0 1-6.46 6.46Zm0-9.396a2.938 2.938 0 0 0 0 5.873 2.94 2.94 0 0 0 0-5.873Z"/></svg>