<svg xmlns="http://www.w3.org/2000/svg" width="189" height="36" fill="none"><g clip-path="url(#a)"><path fill="#59C49E" d="M113.82 28V9.28h2.457l6.786 14.079L129.81 9.28h2.483v18.707h-2.574V15.182L123.674 28h-1.235l-6.058-12.818V28h-2.561Zm22.115 0V9.28h14.885V28h-2.717V11.841h-9.451V28h-2.717Zm17.235 0 6.084-18.72h3.913L169.251 28h-2.821l-5.603-17.082h.702L155.991 28h-2.821Zm3.159-4.225v-2.548h9.776v2.548h-9.776Zm22.56 4.615c-1.872 0-3.467-.407-4.784-1.222-1.317-.823-2.327-1.967-3.029-3.432-.693-1.465-1.04-3.163-1.04-5.096 0-1.933.347-3.631 1.04-5.096.702-1.465 1.712-2.604 3.029-3.419 1.317-.823 2.912-1.235 4.784-1.235 2.158 0 3.943.546 5.356 1.638 1.421 1.092 2.409 2.561 2.964 4.407l-2.756.741c-.364-1.309-1.014-2.336-1.95-3.081-.927-.745-2.132-1.118-3.614-1.118-1.326 0-2.431.299-3.315.897-.884.598-1.551 1.434-2.002 2.509-.442 1.075-.663 2.327-.663 3.757-.009 1.43.208 2.682.65 3.757.451 1.075 1.118 1.911 2.002 2.509.893.598 2.002.897 3.328.897 1.482 0 2.687-.373 3.614-1.118.936-.754 1.586-1.781 1.95-3.081l2.756.741c-.555 1.846-1.543 3.315-2.964 4.407-1.413 1.092-3.198 1.638-5.356 1.638ZM101 9c-5.52 0-10 4.48-10 10s4.48 10 10 10 10-4.48 10-10-4.48-10-10-10Zm0 18c-4.41 0-8-3.59-8-8s3.59-8 8-8 8 3.59 8 8-3.59 8-8 8Zm-5.5-2.5 7.51-3.49 3.49-7.51-7.51 3.49-3.49 7.51Zm5.5-6.6c.61 0 1.1.49 1.1 1.1 0 .61-.49 1.1-1.1 1.1-.61 0-1.1-.49-1.1-1.1 0-.61.49-1.1 1.1-1.1Z"/><path fill="#59C49E" d="M76.82 28V9.28h2.717v8.736l7.839-8.736h3.38l-8.281 9.139L91.367 28h-3.484l-8.346-8.944V28H76.82Z"/><path fill="#232F3E" d="M8.125 28v-2.613a6.315 6.315 0 0 1-2.769-.117 5.79 5.79 0 0 1-2.353-1.3c-.685-.624-1.226-1.43-1.625-2.418-.399-.988-.598-2.14-.598-3.458 0-1.326.2-2.483.598-3.471.399-.997.94-1.811 1.625-2.444a5.846 5.846 0 0 1 2.353-1.326 6.064 6.064 0 0 1 2.769-.143V9.28h2.704v1.43a6.001 6.001 0 0 1 2.756.143 5.734 5.734 0 0 1 2.353 1.326c.693.633 1.24 1.447 1.638 2.444.407.988.611 2.145.611 3.471 0 1.317-.204 2.47-.611 3.458-.399.988-.945 1.794-1.638 2.418a5.68 5.68 0 0 1-2.353 1.3c-.875.243-1.794.282-2.756.117V28H8.125Zm0-5.135v-9.672c-.78-.121-1.46-.07-2.041.156a3.3 3.3 0 0 0-1.417 1.053 4.694 4.694 0 0 0-.832 1.664 7.305 7.305 0 0 0-.273 2.028c0 .71.091 1.382.273 2.015.182.624.46 1.166.832 1.625.373.45.845.78 1.417.988.58.208 1.261.256 2.041.143Zm2.704 0c.78.113 1.456.065 2.028-.143a3.235 3.235 0 0 0 1.417-.988c.381-.45.663-.984.845-1.599.19-.624.286-1.283.286-1.976 0-.693-.095-1.36-.286-2.002a4.843 4.843 0 0 0-.845-1.69 3.318 3.318 0 0 0-1.417-1.092c-.572-.243-1.248-.303-2.028-.182v9.672ZM18.979 28l6.084-18.72h3.913L35.06 28h-2.821l-5.603-17.082h.702L21.8 28h-2.821Zm3.159-4.225v-2.548h9.776v2.548h-9.776ZM37.392 28V9.28h7.566c.182 0 .408.009.676.026.269.009.525.035.767.078 1.04.165 1.907.52 2.6 1.066a5.018 5.018 0 0 1 1.573 2.067c.347.832.52 1.75.52 2.756 0 1.014-.173 1.937-.52 2.769a5.018 5.018 0 0 1-1.573 2.067c-.693.546-1.56.901-2.6 1.066-.242.035-.502.06-.78.078-.268.017-.49.026-.663.026H40.11V28h-2.717Zm2.717-9.295h4.745c.174 0 .364-.009.572-.026a4.31 4.31 0 0 0 .611-.091c.555-.13 1.001-.368 1.34-.715.337-.355.58-.763.727-1.222a4.37 4.37 0 0 0 0-2.743 3.04 3.04 0 0 0-.728-1.209c-.338-.355-.784-.598-1.339-.728a3.327 3.327 0 0 0-.61-.104 6.946 6.946 0 0 0-.573-.026H40.11v6.864ZM53.693 28V9.28h2.457l6.786 14.079L69.683 9.28h2.483v18.707h-2.574V15.182L63.547 28h-1.235l-6.058-12.818V28h-2.561Z"/></g><defs><clipPath id="a"><path fill="#fff" d="M0 0h189v36H0z"/></clipPath></defs></svg>