<svg xmlns="http://www.w3.org/2000/svg" width="15" height="15" fill="none"><g clip-path="url(#a)"><path fill="#59C49E" d="M13.5 2c.378 0 .743.13 1.02.367.278.236.448.559.476.905l.004.103v8.25c0 .347-.143.681-.4.935-.257.255-.61.41-.987.437L13.5 13h-12c-.378 0-.743-.13-1.02-.367a1.334 1.334 0 0 1-.476-.905L0 11.625v-8.25c0-.347.143-.681.4-.935.257-.255.61-.41.987-.437L1.5 2h12Zm0 2.347L8.295 9.118c-.21.193-.497.302-.795.302-.298 0-.584-.109-.795-.302L1.5 4.348v7.277h12V4.347Zm-1.06-.972H2.56L7.5 7.903l4.94-4.528Z"/></g><defs><clipPath id="a"><path fill="#fff" d="M0 0h15v15H0z"/></clipPath></defs></svg>