<svg width="90" height="90" viewBox="0 0 90 90" fill="none" xmlns="http://www.w3.org/2000/svg">
<rect width="90" height="90" rx="45" fill="white"/>
<g clip-path="url(#clip0_569_6)">
<path d="M74.5035 37.1737C74.5048 31.8302 73.0545 26.5868 70.3074 22.0036C67.5604 17.4203 63.6198 13.6695 58.9067 11.1517C54.1936 8.63395 48.885 7.44389 43.5482 7.70866C38.2113 7.97343 33.0466 9.68309 28.6058 12.655C28.264 12.8848 28.0275 13.241 27.9483 13.6451C27.8691 14.0493 27.9537 14.4684 28.1835 14.8103C28.4133 15.1521 28.7695 15.3886 29.1736 15.4678C29.5778 15.547 29.9969 15.4624 30.3388 15.2326C32.6276 13.7058 35.143 12.5498 37.7922 11.8072C35.0546 15.588 33.1938 19.9314 32.345 24.5215C27.752 25.3707 23.4063 27.2337 19.6245 29.9749C20.2035 27.9008 21.0413 25.9079 22.1182 24.0432C22.221 23.867 22.2881 23.6723 22.3156 23.4702C22.3431 23.2681 22.3306 23.0626 22.2787 22.8653C22.2268 22.6681 22.1365 22.483 22.0131 22.3206C21.8896 22.1582 21.7354 22.0218 21.5592 21.919C21.3831 21.8162 21.1884 21.7491 20.9863 21.7216C20.7842 21.6941 20.5786 21.7066 20.3814 21.7585C20.1841 21.8104 19.999 21.9007 19.8366 22.0241C19.6743 22.1476 19.5378 22.3018 19.435 22.478C16.8467 26.9424 15.4879 32.0132 15.4971 37.1737C15.4971 44.9984 18.6055 52.5026 24.1384 58.0356C29.6713 63.5685 37.1756 66.6768 45.0003 66.6768C52.825 66.6768 60.3293 63.5685 65.8622 58.0356C71.3951 52.5026 74.5035 44.9984 74.5035 37.1737ZM45.0003 63.5712C41.4133 63.5712 37.6587 58.6178 35.6369 50.447C38.7357 50.9183 41.8659 51.1529 45.0003 51.1488C48.1347 51.1529 51.2649 50.9183 54.3637 50.447C52.345 58.6178 48.5872 63.5712 45.0003 63.5712ZM45.0003 48.0433C41.6388 48.0527 38.2828 47.7732 34.9692 47.2079C33.8537 40.5659 33.8537 33.7845 34.9692 27.1426C41.6101 26.0272 48.3905 26.0272 55.0314 27.1426C56.1469 33.7845 56.1469 40.5659 55.0314 47.2079C51.7179 47.7742 48.3618 48.0548 45.0003 48.0464V48.0433ZM58.2736 27.8103C66.4413 29.832 71.3979 33.5867 71.3979 37.1737C71.3979 40.7606 66.4444 44.5184 58.2736 46.5401C59.2106 40.3331 59.2106 34.0174 58.2736 27.8103ZM70.373 29.9749C66.592 27.2343 62.2474 25.3713 57.6556 24.5215C56.8062 19.9286 54.9432 15.5829 52.2022 11.8009C56.5253 13.0375 60.4621 15.3549 63.6413 18.5346C66.8205 21.7144 69.1372 25.6516 70.373 29.9749ZM45.0003 10.7761C48.5872 10.7761 52.3419 15.7326 54.3637 23.9035C48.1566 22.9663 41.844 22.9663 35.6369 23.9035C37.6555 15.7326 41.4133 10.7761 45.0003 10.7761ZM31.727 27.8103C30.79 34.0174 30.79 40.33 31.727 46.537C23.5592 44.5184 18.6027 40.7606 18.6027 37.1737C18.6027 33.5867 23.5561 29.832 31.727 27.8103ZM19.6276 44.3787C23.4086 47.1192 27.7532 48.9822 32.345 49.8321C33.1944 54.425 35.0574 58.7706 37.7984 62.5526C33.4753 61.3161 29.5385 58.9987 26.3593 55.8189C23.1801 52.6392 20.8633 48.702 19.6276 44.3787ZM52.2022 62.5526C54.9432 58.7706 56.8062 54.425 57.6556 49.8321C62.2474 48.9822 66.592 47.1192 70.373 44.3787C69.1372 48.702 66.8205 52.6392 63.6413 55.8189C60.4621 58.9987 56.5253 61.3161 52.2022 62.5526Z" fill="#3E596C"/>
<path d="M42.0218 72.767C33.1124 71.9786 24.8181 67.893 18.763 61.31C12.708 54.7271 9.32825 46.1209 9.28569 37.1768C9.28569 36.765 9.12209 36.37 8.83089 36.0788C8.53968 35.7876 8.14472 35.624 7.73289 35.624C7.32106 35.624 6.9261 35.7876 6.6349 36.0788C6.34369 36.37 6.18009 36.765 6.18009 37.1768C6.18149 42.0268 7.10361 46.8324 8.89749 51.3383C7.04302 50.9394 5.10649 51.2426 3.4627 52.1893L0.776356 53.7421C0.41972 53.948 0.15949 54.2872 0.0529092 54.6849C-0.0536716 55.0827 0.00212761 55.5065 0.208032 55.8632C1.23939 57.6445 2.93514 58.944 4.92333 59.4767C6.91153 60.0094 9.02984 59.7318 10.8136 58.7048L12.2422 57.8818C12.7609 58.6986 13.323 59.4843 13.9006 60.2607C11.9783 60.3148 10.1463 61.0884 8.76706 62.4284L6.56829 64.6241C6.27719 64.9153 6.11366 65.3102 6.11366 65.7219C6.11366 66.1337 6.27719 66.5285 6.56829 66.8197C8.02599 68.2732 10.0005 69.0894 12.059 69.0894C14.1175 69.0894 16.092 68.2732 17.5497 66.8197L18.7298 65.6396C19.4193 66.2825 20.146 66.8819 20.8789 67.4719C19.0496 68.0479 17.5013 69.2861 16.5373 70.944L14.9845 73.6365C14.7786 73.9932 14.7228 74.417 14.8293 74.8148C14.9359 75.2126 15.1961 75.5517 15.5528 75.7576C17.3368 76.7852 19.4556 77.0628 21.4441 76.5295C23.4326 75.9961 25.1281 74.6954 26.1584 72.9129L26.9814 71.4906C27.8044 71.9253 28.6491 72.326 29.5062 72.7017C27.9048 73.732 26.7427 75.3201 26.2454 77.1583L25.4441 80.1583C25.391 80.3557 25.3774 80.5616 25.4039 80.7643C25.4304 80.9669 25.4966 81.1624 25.5987 81.3395C25.7008 81.5166 25.8368 81.6718 25.9989 81.7963C26.161 81.9208 26.3461 82.0121 26.5435 82.0651C27.2029 82.242 27.8826 82.3318 28.5652 82.3322C30.2718 82.3271 31.9293 81.7606 33.282 80.72C34.6346 79.6795 35.6072 78.2227 36.0497 76.5744L36.4721 75.003C38.2147 75.4139 39.9841 75.7014 41.7671 75.8632C41.8095 75.8668 41.852 75.8689 41.8945 75.8694C42.2933 75.8666 42.6758 75.7104 42.9627 75.4332C43.2495 75.156 43.4186 74.779 43.435 74.3804C43.4513 73.9819 43.3137 73.5923 43.0506 73.2925C42.7875 72.9927 42.4191 72.8025 42.0218 72.767ZM9.25774 56.0154C8.42366 56.497 7.46066 56.7078 6.50166 56.6188C5.54265 56.5298 4.6349 56.1453 3.90369 55.5185L5.0155 54.8787C5.85122 54.3977 6.81526 54.187 7.77546 54.2754C8.73565 54.3638 9.64501 54.747 10.3789 55.3725L9.25774 56.0154ZM23.469 71.3601C22.9857 72.1929 22.2571 72.8561 21.3828 73.2591C20.5084 73.6621 19.5309 73.7852 18.5838 73.6117L19.2267 72.4968C19.7087 71.663 20.4372 70.9991 21.312 70.5965C22.1869 70.1938 23.165 70.0722 24.1118 70.2483L23.469 71.3601ZM33.0497 75.7701C32.7996 76.7004 32.2677 77.5305 31.5271 78.1466C30.7865 78.7627 29.8734 79.1345 28.9131 79.2111L29.2485 77.9626C29.4991 77.0329 30.0312 76.2034 30.7718 75.5879C31.5124 74.9725 32.4252 74.6011 33.3851 74.5247L33.0497 75.7701ZM15.354 64.6272C14.6724 65.3076 13.7969 65.7603 12.8478 65.9232C11.8986 66.0861 10.9222 65.9513 10.0528 65.5371L10.9627 64.6272C11.6522 63.9588 12.5274 63.514 13.4738 63.3511C14.4202 63.1882 15.3938 63.3147 16.2671 63.7141L15.354 64.6272ZM89.9473 54.6893C89.8954 54.4914 89.8047 54.3058 89.6805 54.1432C89.5563 53.9806 89.401 53.8442 89.2237 53.7421L86.5374 52.1893C84.8934 51.2432 82.9571 50.94 81.1026 51.3383C82.8965 46.8324 83.8186 42.0268 83.82 37.1768C83.82 36.765 83.6564 36.37 83.3652 36.0788C83.074 35.7876 82.679 35.624 82.2672 35.624C81.8554 35.624 81.4604 35.7876 81.1692 36.0788C80.878 36.37 80.7144 36.765 80.7144 37.1768C80.6718 46.1209 77.2921 54.7271 71.2371 61.31C65.182 67.893 56.8877 71.9786 47.9783 72.767C47.5812 72.8024 47.213 72.9892 46.9499 73.2887C46.6867 73.5882 46.5489 73.9774 46.5648 74.3758C46.5808 74.7741 46.7494 75.1511 47.0356 75.4286C47.3219 75.706 47.7039 75.8628 48.1025 75.8663C48.1461 75.8659 48.1896 75.8638 48.233 75.8601C50.016 75.6994 51.7854 75.413 53.528 75.003L53.9504 76.5713C54.3918 78.2204 55.3641 79.6782 56.7169 80.7194C58.0697 81.7607 59.7277 82.3275 61.4349 82.3322C62.1175 82.3318 62.7972 82.242 63.4566 82.0651C63.654 82.0121 63.8391 81.9208 64.0012 81.7963C64.1633 81.6718 64.2993 81.5166 64.4014 81.3395C64.5035 81.1624 64.5697 80.9669 64.5962 80.7643C64.6227 80.5616 64.6091 80.3557 64.556 80.1583L63.7516 77.1614C63.2553 75.3236 62.0944 73.7355 60.4939 72.7048C61.351 72.326 62.1957 71.9284 63.0187 71.4906L63.8417 72.9129C64.872 74.6954 66.5675 75.9961 68.556 76.5295C70.5445 77.0628 72.6633 76.7852 74.4473 75.7576C74.804 75.5517 75.0642 75.2126 75.1708 74.8148C75.2773 74.417 75.2215 73.9932 75.0156 73.6365L73.4628 70.944C72.4965 69.2862 70.9459 68.0491 69.115 67.475C69.8541 66.885 70.5808 66.2825 71.2703 65.6427L72.4504 66.8228C73.9081 68.2763 75.8826 69.0925 77.9411 69.0925C79.9996 69.0925 81.9741 68.2763 83.4318 66.8228C83.5764 66.6786 83.6911 66.5073 83.7694 66.3186C83.8477 66.13 83.888 65.9277 83.888 65.7235C83.888 65.5192 83.8477 65.317 83.7694 65.1283C83.6911 64.9397 83.5764 64.7683 83.4318 64.6241L81.233 62.4284C79.8538 61.0884 78.0218 60.3148 76.0995 60.2607C76.6771 59.4843 77.2393 58.6986 77.7579 57.8818L79.1865 58.7079C80.971 59.733 83.0891 60.0092 85.0768 59.476C87.0646 58.9429 88.7601 57.6438 89.7921 55.8632C89.8941 55.6868 89.9603 55.4921 89.9869 55.2901C90.0135 55.0882 90.0001 54.8829 89.9473 54.6862V54.6893ZM61.087 79.2111C60.1263 79.1343 59.2129 78.762 58.4723 78.1454C57.7316 77.5287 57.2 76.6979 56.9504 75.767L56.615 74.5247C57.5753 74.6013 58.4884 74.9731 59.229 75.5892C59.9696 76.2053 60.5015 77.0354 60.7516 77.9657L61.087 79.2111ZM70.7734 72.4968L71.4163 73.6117C70.4692 73.7861 69.4913 73.6634 68.6168 73.2603C67.7422 72.8572 67.0137 72.1935 66.5312 71.3601L65.8883 70.2483C66.835 70.0736 67.8126 70.1958 68.6872 70.5983C69.5617 71.0009 70.2904 71.664 70.7734 72.4968ZM79.9473 65.534C79.0775 65.9463 78.1016 66.0802 77.1528 65.9174C76.204 65.7545 75.3287 65.3029 74.6461 64.6241L73.733 63.711C74.6063 63.3116 75.5799 63.1851 76.5263 63.348C77.4727 63.5109 78.3479 63.9557 79.0374 64.6241L79.9473 65.534ZM80.7393 56.0185L79.6212 55.3725C80.3548 54.7465 81.2639 54.3627 82.2241 54.2738C83.1843 54.1848 84.1486 54.395 84.9846 54.8756L86.0964 55.5216C85.3643 56.1479 84.4561 56.5319 83.4968 56.6209C82.5374 56.7099 81.5741 56.4994 80.7393 56.0185Z" fill="#59C49E"/>
<path d="M24.4537 19.7947C25.3113 19.7947 26.0065 19.0995 26.0065 18.2419C26.0065 17.3843 25.3113 16.6891 24.4537 16.6891C23.5961 16.6891 22.9009 17.3843 22.9009 18.2419C22.9009 19.0995 23.5961 19.7947 24.4537 19.7947Z" fill="#3E596C"/>
</g>
<defs>
<clipPath id="clip0_569_6">
<rect width="90" height="90" fill="white"/>
</clipPath>
</defs>
</svg>
