<svg xmlns="http://www.w3.org/2000/svg" width="15" height="15" fill="none"><g clip-path="url(#a)"><path fill="#59C49E" d="M1.64 15A1.64 1.64 0 0 1 0 13.36V1.64C0 .736.735 0 1.64 0h7.97c.905 0 1.64.735 1.64 1.64v11.72c0 .08-.006.157-.017.234h2.126a.234.234 0 0 0 .235-.235V7.767a.234.234 0 0 0-.104-.195l-.99-.659a.704.704 0 0 1 .78-1.17l.99.66c.456.304.73.816.73 1.364v5.592A1.641 1.641 0 0 1 13.36 15h-3.282a.72.72 0 0 1-.185-.024A1.67 1.67 0 0 1 9.61 15H6.797a.703.703 0 0 1-.703-.703v-1.172h-.938v1.172a.703.703 0 0 1-.703.703H1.641Zm-.234-1.64c0 .129.105.234.235.234H3.75v-1.172a.703.703 0 0 1 .703-.703h2.344a.703.703 0 0 1 .703.703v1.172h2.11a.234.234 0 0 0 .234-.235V1.641a.234.234 0 0 0-.235-.235H1.641a.234.234 0 0 0-.235.235v11.718Zm2.11-7.735h.468a.703.703 0 0 1 0 1.406h-.468a.703.703 0 0 1 0-1.406Zm-.704-2.11a.703.703 0 0 1 .704-.703h.468a.703.703 0 0 1 0 1.407h-.468a.703.703 0 0 1-.704-.703Zm3.75 2.813a.703.703 0 0 1 .704-.703h.468a.703.703 0 0 1 0 1.406h-.468a.703.703 0 0 1-.704-.703Zm.704-3.516h.468a.703.703 0 0 1 0 1.407h-.468a.703.703 0 0 1 0-1.407ZM2.812 9.142a.703.703 0 0 1 .704-.704h.468a.703.703 0 0 1 0 1.407h-.468a.703.703 0 0 1-.704-.703Zm4.454-.704h.468a.703.703 0 0 1 0 1.407h-.468a.703.703 0 0 1 0-1.406Z"/></g><defs><clipPath id="a"><path fill="#fff" d="M0 0h15v15H0z"/></clipPath></defs></svg>