<svg xmlns="http://www.w3.org/2000/svg" width="15" height="15" fill="none"><path fill="#59C49E" d="M11.063 1.2a.684.684 0 0 0-.968 0L8.526 2.77l-.884-.885a.684.684 0 0 0-.968 0L2.57 5.99a.684.684 0 0 0 .967.967l3.622-3.621.4.4-1.568 1.57-4.79 4.79a.684.684 0 0 0-.2.483v2.737a.684.684 0 0 0 .684.684h2.737a.684.684 0 0 0 .484-.2l4.79-4.79L13.8 4.905a.684.684 0 0 0 0-.968L11.063 1.2ZM9.01 4.22l1.57-1.568 1.768 1.769-3.137 3.138-1.77-1.77 1.57-1.569Zm-6.642 6.642 4.106-4.105 1.77 1.77-4.106 4.105h-1.77v-1.77Z"/></svg>