<svg xmlns="http://www.w3.org/2000/svg" width="15" height="15" fill="none"><path fill="#59C49E" d="M13.14 8.274c-.165 0-.338-.053-.504-.09a7.089 7.089 0 0 1-.986-.295 1.502 1.502 0 0 0-1.866.755l-.166.34a9.17 9.17 0 0 1-2.002-1.51 9.192 9.192 0 0 1-1.505-2.008l.316-.212a1.508 1.508 0 0 0 .752-1.872 7.815 7.815 0 0 1-.293-.989 5.614 5.614 0 0 1-.09-.513A2.266 2.266 0 0 0 6.012.522 2.254 2.254 0 0 0 4.537 0H2.28A2.253 2.253 0 0 0 .563.77 2.267 2.267 0 0 0 .02 2.574a14.36 14.36 0 0 0 4.093 8.352A14.286 14.286 0 0 0 12.456 15h.286A2.255 2.255 0 0 0 15 12.728v-2.265a2.268 2.268 0 0 0-1.86-2.19Zm.377 4.53a.758.758 0 0 1-.544.726.786.786 0 0 1-.329.028 12.781 12.781 0 0 1-7.442-3.676 12.848 12.848 0 0 1-3.63-7.481.825.825 0 0 1 .188-.62.753.753 0 0 1 .564-.256h2.259a.751.751 0 0 1 .752.596c.03.207.068.41.113.612.087.398.203.789.346 1.17l-1.053.49a.753.753 0 0 0-.37 1.005 10.923 10.923 0 0 0 5.27 5.284.75.75 0 0 0 .572 0 .753.753 0 0 0 .429-.393l.466-1.056c.39.14.787.255 1.19.347.2.045.404.083.61.113a.752.752 0 0 1 .594.755l.015 2.355Z"/></svg>