<svg xmlns="http://www.w3.org/2000/svg" width="30" height="30" fill="none"><g fill="#F4F6FB" fill-rule="evenodd" clip-path="url(#a)" clip-rule="evenodd"><path d="M21 12a6 6 0 1 1-12 0 6 6 0 0 1 12 0Zm-3 0a3 3 0 1 1-6 0 3 3 0 0 1 6 0Z"/><path d="M6.725 20.715A12.018 12.018 0 0 1 3.805 7.69 12.012 12.012 0 0 1 8.09 2.191a11.99 11.99 0 0 1 17.88 4.955 12.028 12.028 0 0 1-2.28 13.153L15.416 29l-8.69-8.285Zm15.035-2.257-6.436 6.768-6.76-6.444a9.347 9.347 0 0 1-2.272-10.13 9.343 9.343 0 0 1 3.334-4.277 9.326 9.326 0 0 1 13.906 3.853 9.355 9.355 0 0 1-1.772 10.23Z"/></g><defs><clipPath id="a"><path fill="#fff" d="M0 0h30v30H0z"/></clipPath></defs></svg>