<svg xmlns="http://www.w3.org/2000/svg" width="120" height="120" fill="none"><rect width="117" height="117" x="1.5" y="1.5" fill="#fff" stroke="#ECF7FD" stroke-dasharray="6 6" stroke-width="3" rx="58.5"/><path fill="#3E596C" fill-rule="evenodd" d="M51.237 24.462a2.198 2.198 0 0 1 1.554-.644H67.21a2.198 2.198 0 0 1 2.199 2.198v21.137h3.268c1.905 0 2.908 2.258 1.631 3.672l-9.103 10.08h24.105v-7.59H77.346a1.346 1.346 0 0 1 0-2.691h12.21A2.443 2.443 0 0 1 92 53.066v8.088a2.443 2.443 0 0 1-2.442 2.442h-.969l-3.932 20.858-1.323-.25 1.323.25a9.273 9.273 0 0 1-9.112 7.554H53.59a1.346 1.346 0 1 1 0-2.691h21.953a6.581 6.581 0 0 0 6.468-5.362l3.838-20.359H62.773l-1.141 1.264a2.199 2.199 0 0 1-3.263 0l-1.141-1.264H34.15l2.378 12.611a1.346 1.346 0 1 1-2.645.499l-2.472-13.11h-.968A2.444 2.444 0 0 1 28 61.154v-8.088a2.443 2.443 0 0 1 2.443-2.442h15.088c-1.02-1.417-.023-3.47 1.794-3.47h3.268V26.015c0-.583.232-1.142.644-1.554Zm-3.294 28.853h-17.25v7.59h24.104l-6.854-7.59Zm5.342-26.805v21.136a2.198 2.198 0 0 1-2.199 2.199h-2.651L60 62.65l11.566-12.805h-2.651a2.197 2.197 0 0 1-2.199-2.199V26.51H53.285Z" clip-rule="evenodd"/><path fill="#59C49E" fill-rule="evenodd" d="M39.913 76.96a8.265 8.265 0 1 0 0 16.53 8.265 8.265 0 0 0 0-16.53Zm-10.956 8.265c0-6.051 4.905-10.957 10.956-10.957 6.052 0 10.957 4.906 10.957 10.957 0 6.051-4.905 10.957-10.956 10.957-6.052 0-10.958-4.906-10.958-10.957Z" clip-rule="evenodd"/><path fill="#59C49E" fill-rule="evenodd" d="M44.298 71.014c0-.743.602-1.346 1.346-1.346H76.41a1.346 1.346 0 0 1 0 2.692H45.644a1.346 1.346 0 0 1-1.346-1.346Zm9.94 6.795c0-.743.602-1.345 1.345-1.345H76.41a1.346 1.346 0 0 1 0 2.691H55.583a1.346 1.346 0 0 1-1.346-1.346Zm-14.325 2.547c.743 0 1.346.602 1.346 1.346v2.177h2.178a1.346 1.346 0 1 1 0 2.692h-2.178v2.178a1.346 1.346 0 1 1-2.692 0V86.57H36.39a1.346 1.346 0 0 1 0-2.692h2.177v-2.178c0-.743.603-1.345 1.346-1.345Z" clip-rule="evenodd"/></svg>