<svg width="90" height="90" viewBox="0 0 90 90" fill="none" xmlns="http://www.w3.org/2000/svg">
<rect width="90" height="90" rx="45" fill="#ECF7FD"/>
<g clip-path="url(#clip0_534_13)">
<path d="M23.6667 17.3334H42.3334C43.3942 17.3334 44.4116 16.9119 45.1618 16.1618C45.9119 15.4117 46.3334 14.3942 46.3334 13.3334C46.3334 12.2725 45.9119 11.2551 45.1618 10.5049C44.4116 9.7548 43.3942 9.33337 42.3334 9.33337H23.6667C22.6058 9.33337 21.5884 9.7548 20.8383 10.5049C20.0881 11.2551 19.6667 12.2725 19.6667 13.3334C19.6667 14.3942 20.0881 15.4117 20.8383 16.1618C21.5884 16.9119 22.6058 17.3334 23.6667 17.3334ZM23.6667 12H42.3334C42.687 12 43.0261 12.1405 43.2762 12.3906C43.5262 12.6406 43.6667 12.9798 43.6667 13.3334C43.6667 13.687 43.5262 14.0261 43.2762 14.2762C43.0261 14.5262 42.687 14.6667 42.3334 14.6667H23.6667C23.3131 14.6667 22.9739 14.5262 22.7239 14.2762C22.4738 14.0261 22.3334 13.687 22.3334 13.3334C22.3334 12.9798 22.4738 12.6406 22.7239 12.3906C22.9739 12.1405 23.3131 12 23.6667 12Z" fill="#59C49E"/>
<path d="M83.852 44.5987C83.9892 43.6096 83.86 42.6017 83.4777 41.6792C83.0955 40.7567 82.4739 39.9529 81.6773 39.3507C81.1474 38.9513 80.7685 38.3839 80.6027 37.7414C80.3495 36.7769 79.844 35.8972 79.1382 35.1928C78.4324 34.4883 77.5517 33.9846 76.5867 33.7334C75.9483 33.5639 75.385 33.1855 74.9867 32.6587C74.386 31.8597 73.582 31.2365 72.6584 30.854C71.7349 30.4715 70.7257 30.3437 69.736 30.484C69.0784 30.5727 68.4101 30.4389 67.8373 30.104C66.9766 29.6011 65.9976 29.336 65.0007 29.336C64.0037 29.336 63.0248 29.6011 62.164 30.104C61.8078 30.3088 61.4126 30.4364 61.004 30.4787V11.2134C61.0049 10.8638 60.9363 10.5176 60.8022 10.1949C60.668 9.87213 60.471 9.57927 60.2227 9.33336L51.6667 0.777356C51.4204 0.529708 51.1274 0.333462 50.8047 0.200018C50.4819 0.066574 50.1359 -0.00140779 49.7867 2.20961e-05H9C7.93913 2.20961e-05 6.92172 0.421449 6.17157 1.1716C5.42143 1.92174 5 2.93916 5 4.00002L5 70.6667C5 71.7276 5.42143 72.745 6.17157 73.4951C6.92172 74.2453 7.93913 74.6667 9 74.6667H48.4467C48.5671 75.3671 48.9333 76.0017 49.4795 76.4564C50.0256 76.9112 50.716 77.1564 51.4267 77.148H54.9147L56.8773 79.1134C57.4551 79.6812 58.2326 79.9995 59.0427 80C59.2346 79.9994 59.426 79.9816 59.6147 79.9467C60.0995 79.8551 60.5551 79.6479 60.9427 79.3427C61.3303 79.0374 61.6386 78.6432 61.8413 78.1934L65 71.2294L68.156 78.1854C68.358 78.637 68.6662 79.0331 69.0544 79.3398C69.4426 79.6465 69.8992 79.8547 70.3853 79.9467C70.8767 80.0367 71.3824 80.0072 71.86 79.8608C72.3375 79.7143 72.7729 79.4553 73.1293 79.1054L75.0853 77.148H78.5733C79.0784 77.1481 79.5756 77.0229 80.0203 76.7836C80.4651 76.5443 80.8436 76.1984 81.1218 75.7769C81.4001 75.3555 81.5694 74.8715 81.6147 74.3685C81.66 73.8655 81.5798 73.3591 81.3813 72.8947L77.716 64.4947C78.4221 64.1366 79.0442 63.6328 79.5413 63.0166C80.0385 62.4005 80.3993 61.6859 80.6 60.92C80.7695 60.2816 81.1478 59.7184 81.6747 59.32C82.4714 58.7174 83.0929 57.913 83.4752 56.9901C83.8575 56.0671 83.9866 55.0589 83.8493 54.0694C83.7633 53.4116 83.8964 52.7439 84.228 52.1694C84.7316 51.3088 84.9971 50.3298 84.9971 49.3327C84.9971 48.3356 84.7316 47.3565 84.228 46.496C83.8938 45.9235 83.7614 45.2554 83.852 44.5987ZM51.6667 4.55069L56.452 9.33336H53C52.6464 9.33336 52.3072 9.19288 52.0572 8.94283C51.8071 8.69278 51.6667 8.35365 51.6667 8.00002V4.55069ZM49.008 72H9C8.64638 72 8.30724 71.8596 8.05719 71.6095C7.80714 71.3595 7.66667 71.0203 7.66667 70.6667V4.00002C7.66667 3.6464 7.80714 3.30726 8.05719 3.05721C8.30724 2.80716 8.64638 2.66669 9 2.66669H49V8.00002C49 9.06089 49.4214 10.0783 50.1716 10.8285C50.9217 11.5786 51.9391 12 53 12H58.3333V30.5614C57.012 30.8378 55.8346 31.5815 55.0173 32.656C54.6179 33.186 54.0506 33.5648 53.408 33.7307C52.4435 33.9839 51.5638 34.4894 50.8594 35.1952C50.155 35.901 49.6513 36.7817 49.4 37.7467C49.2305 38.3851 48.8522 38.9483 48.3253 39.3467C47.5286 39.9494 46.9071 40.7537 46.5248 41.6766C46.1425 42.5996 46.0134 43.6078 46.1507 44.5974C46.241 45.255 46.1071 45.9238 45.7707 46.496C45.267 47.3565 45.0016 48.3356 45.0016 49.3327C45.0016 50.3298 45.267 51.3088 45.7707 52.1694C46.1038 52.7413 46.2357 53.4083 46.1453 54.064C46.0081 55.0532 46.1373 56.061 46.5196 56.9835C46.9019 57.906 47.5234 58.7099 48.32 59.312C48.85 59.7115 49.2288 60.2788 49.3947 60.9214C49.5959 61.6868 49.957 62.401 50.4544 63.0167C50.9517 63.6324 51.5739 64.1357 52.28 64.4934L49.008 72ZM59.408 77.0987C59.3826 77.1577 59.3428 77.2093 59.2922 77.2489C59.2417 77.2885 59.182 77.3148 59.1187 77.3254C59.054 77.3387 58.9871 77.336 58.9237 77.3177C58.8602 77.2993 58.8022 77.2658 58.7547 77.22L56.744 75.208C56.2768 74.743 55.6445 74.4817 54.9853 74.4814H51.4267C51.362 74.4817 51.2984 74.4657 51.2415 74.435C51.1847 74.4042 51.1364 74.3596 51.1013 74.3054C51.0664 74.2559 51.0445 74.1985 51.0378 74.1383C51.031 74.0782 51.0396 74.0173 51.0627 73.9614L54.688 65.644C54.8081 65.7566 54.9183 65.8793 55.0173 66.0107C55.6178 66.8099 56.4218 67.4333 57.3454 67.8158C58.269 68.1983 59.2783 68.3259 60.268 68.1854C60.9256 68.0955 61.5943 68.2293 62.1667 68.5654C62.4611 68.7326 62.7699 68.8732 63.0893 68.9854L59.408 77.0987ZM78.9307 73.9494C78.9561 74.0066 78.9664 74.0694 78.9605 74.1317C78.9547 74.1941 78.9329 74.2539 78.8973 74.3054C78.8622 74.3596 78.814 74.4042 78.7572 74.435C78.7003 74.4657 78.6366 74.4817 78.572 74.4814H75.0133C74.3554 74.4816 73.7242 74.7418 73.2573 75.2054L71.2573 77.2054C71.2097 77.2533 71.1509 77.2887 71.0862 77.3085C71.0216 77.3283 70.953 77.3318 70.8867 77.3187C70.8221 77.3076 70.7613 77.2803 70.7102 77.2392C70.6591 77.1982 70.6194 77.1448 70.5947 77.084L66.9173 68.9774C67.2407 68.8646 67.553 68.7227 67.8507 68.5534C68.4233 68.222 69.0897 68.0902 69.7453 68.1787C70.7345 68.3172 71.7428 68.1886 72.6656 67.8062C73.5883 67.4238 74.392 66.8016 74.9933 66.004C75.0919 65.8738 75.2011 65.752 75.32 65.64L78.9307 73.9494ZM81.9333 50.8174V50.8294C81.3011 51.9164 81.05 53.1834 81.22 54.4294C81.2916 54.9483 81.2235 55.477 81.0229 55.9609C80.8223 56.4448 80.4964 56.8666 80.0787 57.1827C79.0716 57.9465 78.3503 59.0265 78.0307 60.2494C77.8978 60.7556 77.6327 61.2174 77.2625 61.5873C76.8923 61.9573 76.4303 62.2221 75.924 62.3547C74.7004 62.6719 73.6198 63.3931 72.8573 64.4014C72.5388 64.8163 72.1167 65.1401 71.6334 65.3402C71.1501 65.5404 70.6226 65.6097 70.104 65.5414C68.8518 65.3699 67.5782 65.6229 66.4867 66.26C66.0352 66.5262 65.5207 66.6666 64.9967 66.6666C64.4726 66.6666 63.9581 66.5262 63.5067 66.26C62.6446 65.7575 61.6645 65.4929 60.6667 65.4934C60.4102 65.4939 60.1541 65.5117 59.9 65.5467C59.3812 65.6161 58.8532 65.5471 58.3697 65.3467C57.8861 65.1463 57.4642 64.8215 57.1467 64.4054C56.3829 63.3983 55.3029 62.677 54.08 62.3574C53.5738 62.2245 53.112 61.9594 52.742 61.5891C52.3721 61.2189 52.1072 60.757 51.9747 60.2507C51.6575 59.0271 50.9363 57.9464 49.928 57.184C49.5102 56.868 49.1843 56.4463 48.9839 55.9623C48.7835 55.4783 48.7159 54.9496 48.788 54.4307C48.9595 53.1785 48.7065 51.9049 48.0693 50.8134C47.8031 50.3619 47.6627 49.8474 47.6627 49.3234C47.6627 48.7993 47.8031 48.2848 48.0693 47.8334C48.7016 46.7464 48.9527 45.4793 48.7827 44.2334C48.7111 43.7144 48.7791 43.1858 48.9797 42.7018C49.1804 42.2179 49.5063 41.7962 49.924 41.48C50.9311 40.7162 51.6523 39.6362 51.972 38.4134C52.1049 37.9071 52.37 37.4454 52.7402 37.0754C53.1104 36.7054 53.5724 36.4406 54.0787 36.308C55.3023 35.9908 56.3829 35.2696 57.1453 34.2614C57.4637 33.8462 57.8857 33.5222 58.3691 33.3221C58.8525 33.122 59.38 33.0527 59.8987 33.1214C61.1509 33.292 62.4241 33.039 63.516 32.4027C63.9674 32.1365 64.4819 31.9961 65.006 31.9961C65.5301 31.9961 66.0446 32.1365 66.496 32.4027C67.5827 33.0357 68.85 33.2868 70.096 33.116C70.6149 33.0459 71.1431 33.1146 71.6267 33.3151C72.1104 33.5155 72.5323 33.8407 72.8493 34.2574C73.6131 35.2644 74.6931 35.9857 75.916 36.3054C76.4222 36.4382 76.884 36.7034 77.254 37.0736C77.6239 37.4438 77.8888 37.9057 78.0213 38.412C78.3385 39.6357 79.0597 40.7163 80.068 41.4787C80.4858 41.7947 80.8117 42.2165 81.0121 42.7005C81.2125 43.1845 81.2801 43.7132 81.208 44.232C81.0365 45.4842 81.2895 46.7578 81.9267 47.8494C82.1916 48.2988 82.3319 48.8107 82.3331 49.3325C82.3343 49.8542 82.1963 50.3667 81.9333 50.8174Z" fill="#3E596C"/>
<path d="M65 36C62.3629 36 59.7851 36.7819 57.5924 38.247C55.3997 39.7121 53.6908 41.7945 52.6816 44.2308C51.6724 46.6672 51.4084 49.3481 51.9229 51.9345C52.4373 54.5209 53.7072 56.8967 55.5719 58.7614C57.4366 60.6261 59.8124 61.896 62.3988 62.4104C64.9852 62.9249 67.6661 62.6609 70.1024 61.6517C72.5388 60.6425 74.6212 58.9336 76.0863 56.7409C77.5514 54.5482 78.3333 51.9704 78.3333 49.3333C78.3295 45.7983 76.9235 42.4091 74.4238 39.9095C71.9242 37.4098 68.535 36.0038 65 36ZM65 60C62.8903 60 60.828 59.3744 59.0739 58.2023C57.3198 57.0302 55.9526 55.3643 55.1453 53.4152C54.338 51.4662 54.1267 49.3215 54.5383 47.2523C54.9499 45.1832 55.9658 43.2826 57.4575 41.7908C58.9493 40.2991 60.8499 39.2832 62.919 38.8716C64.9882 38.46 67.1329 38.6712 69.082 39.4786C71.031 40.2859 72.6969 41.6531 73.869 43.4072C75.0411 45.1613 75.6667 47.2236 75.6667 49.3333C75.6635 52.1613 74.5387 54.8726 72.539 56.8723C70.5393 58.872 67.828 59.9968 65 60ZM14.3333 25.3333H51.6667C52.0203 25.3333 52.3594 25.1928 52.6095 24.9428C52.8595 24.6927 53 24.3536 53 24C53 23.6463 52.8595 23.3072 52.6095 23.0571C52.3594 22.8071 52.0203 22.6666 51.6667 22.6666H14.3333C13.9797 22.6666 13.6406 22.8071 13.3905 23.0571C13.1405 23.3072 13 23.6463 13 24C13 24.3536 13.1405 24.6927 13.3905 24.9428C13.6406 25.1928 13.9797 25.3333 14.3333 25.3333ZM14.3333 32H49C49.3536 32 49.6928 31.8595 49.9428 31.6094C50.1929 31.3594 50.3333 31.0202 50.3333 30.6666C50.3333 30.313 50.1929 29.9739 49.9428 29.7238C49.6928 29.4738 49.3536 29.3333 49 29.3333H14.3333C13.9797 29.3333 13.6406 29.4738 13.3905 29.7238C13.1405 29.9739 13 30.313 13 30.6666C13 31.0202 13.1405 31.3594 13.3905 31.6094C13.6406 31.8595 13.9797 32 14.3333 32ZM43.6667 36H34.3333C33.9797 36 33.6406 36.1404 33.3905 36.3905C33.1405 36.6405 33 36.9797 33 37.3333C33 37.6869 33.1405 38.0261 33.3905 38.2761C33.6406 38.5262 33.9797 38.6666 34.3333 38.6666H43.6667C44.0203 38.6666 44.3594 38.5262 44.6095 38.2761C44.8595 38.0261 45 37.6869 45 37.3333C45 36.9797 44.8595 36.6405 44.6095 36.3905C44.3594 36.1404 44.0203 36 43.6667 36ZM14.3333 38.6666H29C29.3536 38.6666 29.6928 38.5262 29.9428 38.2761C30.1929 38.0261 30.3333 37.6869 30.3333 37.3333C30.3333 36.9797 30.1929 36.6405 29.9428 36.3905C29.6928 36.1404 29.3536 36 29 36H14.3333C13.9797 36 13.6406 36.1404 13.3905 36.3905C13.1405 36.6405 13 36.9797 13 37.3333C13 37.6869 13.1405 38.0261 13.3905 38.2761C13.6406 38.5262 13.9797 38.6666 14.3333 38.6666ZM22.3333 44C22.3333 44.3536 22.4738 44.6927 22.7239 44.9428C22.9739 45.1928 23.313 45.3333 23.6667 45.3333H41C41.3536 45.3333 41.6928 45.1928 41.9428 44.9428C42.1929 44.6927 42.3333 44.3536 42.3333 44C42.3333 43.6463 42.1929 43.3072 41.9428 43.0571C41.6928 42.8071 41.3536 42.6666 41 42.6666H23.6667C23.313 42.6666 22.9739 42.8071 22.7239 43.0571C22.4738 43.3072 22.3333 43.6463 22.3333 44ZM14.3333 45.3333H18.3333C18.687 45.3333 19.0261 45.1928 19.2761 44.9428C19.5262 44.6927 19.6667 44.3536 19.6667 44C19.6667 43.6463 19.5262 43.3072 19.2761 43.0571C19.0261 42.8071 18.687 42.6666 18.3333 42.6666H14.3333C13.9797 42.6666 13.6406 42.8071 13.3905 43.0571C13.1405 43.3072 13 43.6463 13 44C13 44.3536 13.1405 44.6927 13.3905 44.9428C13.6406 45.1928 13.9797 45.3333 14.3333 45.3333ZM14.3333 52H41C41.3536 52 41.6928 51.8595 41.9428 51.6094C42.1929 51.3594 42.3333 51.0202 42.3333 50.6666C42.3333 50.313 42.1929 49.9739 41.9428 49.7238C41.6928 49.4738 41.3536 49.3333 41 49.3333H14.3333C13.9797 49.3333 13.6406 49.4738 13.3905 49.7238C13.1405 49.9739 13 50.313 13 50.6666C13 51.0202 13.1405 51.3594 13.3905 51.6094C13.6406 51.8595 13.9797 52 14.3333 52ZM42.3333 56H14.3333C13.9797 56 13.6406 56.1404 13.3905 56.3905C13.1405 56.6405 13 56.9797 13 57.3333C13 57.6869 13.1405 58.0261 13.3905 58.2761C13.6406 58.5262 13.9797 58.6666 14.3333 58.6666H42.3333C42.687 58.6666 43.0261 58.5262 43.2761 58.2761C43.5262 58.0261 43.6667 57.6869 43.6667 57.3333C43.6667 56.9797 43.5262 56.6405 43.2761 56.3905C43.0261 56.1404 42.687 56 42.3333 56ZM29 62.6666H14.3333C13.9797 62.6666 13.6406 62.8071 13.3905 63.0572C13.1405 63.3072 13 63.6463 13 64C13 64.3536 13.1405 64.6927 13.3905 64.9428C13.6406 65.1928 13.9797 65.3333 14.3333 65.3333H29C29.3536 65.3333 29.6928 65.1928 29.9428 64.9428C30.1929 64.6927 30.3333 64.3536 30.3333 64C30.3333 63.6463 30.1929 63.3072 29.9428 63.0572C29.6928 62.8071 29.3536 62.6666 29 62.6666Z" fill="#59C49E"/>
<path d="M68.0573 45.724L62.3333 51.448L61.9427 51.0573C61.6912 50.8145 61.3544 50.6801 61.0048 50.6831C60.6552 50.6862 60.3208 50.8264 60.0736 51.0736C59.8264 51.3208 59.6861 51.6552 59.6831 52.0048C59.6801 52.3544 59.8144 52.6912 60.0573 52.9427L61.3907 54.276C61.6407 54.526 61.9798 54.6664 62.3333 54.6664C62.6869 54.6664 63.026 54.526 63.276 54.276L69.9427 47.6093C70.1855 47.3579 70.3199 47.0211 70.3169 46.6715C70.3139 46.3219 70.1736 45.9875 69.9264 45.7403C69.6792 45.493 69.3448 45.3528 68.9952 45.3498C68.6456 45.3467 68.3088 45.4811 68.0573 45.724Z" fill="#59C49E"/>
</g>
<defs>
<clipPath id="clip0_534_13">
<rect width="80" height="80" fill="white" transform="translate(5)"/>
</clipPath>
</defs>
</svg>
