<svg width="90" height="90" viewBox="0 0 90 90" fill="none" xmlns="http://www.w3.org/2000/svg">
<rect width="90" height="90" rx="45" fill="#ECF7FD"/>
<path d="M58.2323 42.5L57.8662 42.8661C57.6318 43.1006 57.5001 43.4185 57.5001 43.75C57.5001 44.0816 57.6318 44.3995 57.8662 44.634C58.1006 44.8684 58.4186 45.0001 58.7501 45.0001C59.0816 45.0001 59.3996 44.8684 59.634 44.634L62.134 42.134C62.2501 42.0179 62.3422 41.8801 62.405 41.7284C62.4678 41.5768 62.5001 41.4142 62.5001 41.25C62.5001 41.0859 62.4678 40.9233 62.405 40.7717C62.3422 40.62 62.2501 40.4822 62.134 40.3661L59.634 37.8661C59.3996 37.6317 59.0816 37.5 58.7501 37.5C58.4186 37.5 58.1006 37.6317 57.8662 37.8661C57.6318 38.1006 57.5001 38.4185 57.5001 38.75C57.5001 39.0816 57.6318 39.3995 57.8662 39.634L58.2323 40H44.7851C44.5975 39.4736 44.2951 38.9954 43.8999 38.6002C43.5047 38.205 43.0266 37.9026 42.5001 37.715V29.2679L42.8662 29.634C43.1006 29.8684 43.4186 30.0001 43.7501 30.0001C44.0816 30.0001 44.3996 29.8684 44.634 29.634C44.8684 29.3995 45.0001 29.0816 45.0001 28.75C45.0001 28.4185 44.8684 28.1006 44.634 27.8661L42.134 25.3661C42.0179 25.2501 41.8801 25.158 41.7285 25.0952C41.5768 25.0323 41.4143 25 41.2501 25C41.0859 25 40.9234 25.0323 40.7717 25.0952C40.6201 25.158 40.4823 25.2501 40.3662 25.3661L37.8662 27.8661C37.6318 28.1006 37.5001 28.4185 37.5001 28.75C37.5001 29.0816 37.6318 29.3995 37.8662 29.634C38.1006 29.8684 38.4186 30.0001 38.7501 30.0001C39.0816 30.0001 39.3996 29.8684 39.634 29.634L40.0001 29.2679V37.715C39.4027 37.9261 38.8686 38.285 38.4475 38.7584C38.0264 39.2317 37.7321 39.804 37.592 40.4219C37.452 41.0398 37.4708 41.6831 37.6466 42.2917C37.8225 42.9004 38.1496 43.4545 38.5976 43.9025C39.0456 44.3505 39.5998 44.6777 40.2084 44.8535C40.8171 45.0294 41.4604 45.0481 42.0782 44.9081C42.6961 44.7681 43.2684 44.4737 43.7418 44.0527C44.2151 43.6316 44.574 43.0974 44.7851 42.5H58.2323ZM41.2501 42.5C41.0029 42.5 40.7612 42.4267 40.5556 42.2894C40.3501 42.152 40.1899 41.9568 40.0952 41.7284C40.0006 41.5 39.9759 41.2487 40.0241 41.0062C40.0723 40.7637 40.1914 40.541 40.3662 40.3662C40.541 40.1913 40.7638 40.0723 41.0062 40.0241C41.2487 39.9758 41.5 40.0006 41.7284 40.0952C41.9569 40.1898 42.1521 40.35 42.2894 40.5556C42.4268 40.7611 42.5001 41.0028 42.5001 41.25C42.4997 41.5815 42.3679 41.8992 42.1336 42.1335C41.8992 42.3679 41.5815 42.4997 41.2501 42.5Z" fill="#59C49E"/>
<path d="M73.3674 51.6439C75.6946 44.4405 75.5305 36.6635 72.9014 29.5646C70.2724 22.4658 65.3314 16.4579 58.8735 12.5079C52.4157 8.55798 44.8167 6.89568 37.2995 7.78855C29.7822 8.68142 22.7841 12.0775 17.4312 17.4303C12.0783 22.7831 8.68208 29.7813 7.7891 37.2985C6.89611 44.8157 8.55831 52.4147 12.5082 58.8726C16.458 65.3305 22.4658 70.2716 29.5647 72.9008C36.6635 75.5299 44.4405 75.6942 51.644 73.3671C52.7777 75.6944 54.4511 77.7172 56.5248 79.2668C58.5985 80.8165 61.0125 81.8483 63.5657 82.2762C66.1189 82.7041 68.7374 82.5158 71.203 81.7268C73.6687 80.9379 75.9101 79.5713 77.7407 77.7407C79.5713 75.9102 80.9379 73.6687 81.7269 71.2031C82.5158 68.7375 82.7042 66.119 82.2764 63.5658C81.8485 61.0126 80.8168 58.5986 79.2671 56.5249C77.7175 54.4511 75.6947 52.7777 73.3674 51.6439ZM41.2501 72.5C24.0188 72.5 10.0001 58.4813 10.0001 41.25C10.0001 24.0188 24.0188 10 41.2501 10C58.4813 10 72.5 24.0188 72.5 41.25C72.5039 44.4633 72.0113 47.6578 71.0396 50.7206C70.238 50.4732 69.4182 50.2887 68.5879 50.1689C69.5269 47.2893 70.0036 44.2789 70 41.25C70 25.3972 57.1029 12.5 41.2501 12.5C25.3972 12.5 12.5001 25.3972 12.5001 41.25C12.5001 57.1028 25.3972 70 41.2501 70C44.279 70.0042 47.2894 69.5279 50.1691 68.5891C50.2889 69.4188 50.4732 70.2379 50.7205 71.0389C47.6578 72.0108 44.4633 72.5036 41.2501 72.5ZM50.0032 66.0049C47.5878 66.8597 45.0596 67.3537 42.5001 67.4708V66.25C42.5001 65.9185 42.3684 65.6006 42.1339 65.3661C41.8995 65.1317 41.5816 65 41.2501 65C40.9185 65 40.6006 65.1317 40.3662 65.3661C40.1317 65.6006 40.0001 65.9185 40.0001 66.25V67.4696C33.9078 67.1834 28.1073 64.7767 23.6019 60.6658L24.4563 59.8114C24.5735 59.6956 24.6667 59.5578 24.7304 59.4058C24.7942 59.2538 24.8273 59.0908 24.8278 58.926C24.8282 58.7612 24.7962 58.5979 24.7333 58.4456C24.6705 58.2932 24.5781 58.1548 24.4616 58.0383C24.3451 57.9218 24.2067 57.8295 24.0543 57.7666C23.902 57.7038 23.7387 57.6717 23.5739 57.6722C23.4091 57.6728 23.2461 57.7058 23.0941 57.7696C22.9421 57.8334 22.8043 57.9265 22.6885 58.0438L21.8343 58.8981C17.7234 54.3928 15.3167 48.5923 15.0305 42.5H16.2501C16.5816 42.5 16.8995 42.3683 17.1339 42.1339C17.3684 41.8995 17.5001 41.5815 17.5001 41.25C17.5001 40.9185 17.3684 40.6006 17.1339 40.3661C16.8995 40.1317 16.5816 40 16.2501 40H15.0305C15.3168 33.9078 17.7235 28.1073 21.8343 23.6019L22.8655 24.6332C22.9811 24.7514 23.119 24.8455 23.2712 24.91C23.4234 24.9746 23.5869 25.0083 23.7522 25.0093C23.9175 25.0102 24.0814 24.9783 24.2343 24.9155C24.3873 24.8527 24.5262 24.7601 24.6431 24.6433C24.76 24.5264 24.8526 24.3874 24.9155 24.2345C24.9783 24.0816 25.0102 23.9177 25.0093 23.7524C25.0084 23.5871 24.9747 23.4236 24.9102 23.2714C24.8456 23.1192 24.7515 22.9812 24.6333 22.8656L23.6021 21.8344C28.1073 17.7235 33.9079 15.3167 40.0001 15.0305V16.25C40.0001 16.5815 40.1317 16.8995 40.3662 17.1339C40.6006 17.3683 40.9185 17.5 41.2501 17.5C41.5816 17.5 41.8995 17.3683 42.1339 17.1339C42.3684 16.8995 42.5001 16.5815 42.5001 16.25V15.0305C48.5923 15.3167 54.3928 17.7234 58.8982 21.8342L58.0438 22.6886C57.8117 22.9235 57.6821 23.2407 57.6831 23.5709C57.6841 23.9011 57.8157 24.2175 58.0492 24.451C58.2827 24.6845 58.5991 24.8161 58.9293 24.8171C59.2595 24.8181 59.5767 24.6884 59.8116 24.4563L60.6658 23.6019C64.7767 28.1072 67.1834 33.9078 67.4696 40H66.25C65.9185 40 65.6006 40.1317 65.3662 40.3661C65.1317 40.6006 65 40.9185 65 41.25C65 41.5815 65.1317 41.8995 65.3662 42.1339C65.6006 42.3683 65.9185 42.5 66.25 42.5H67.4707C67.353 45.0595 66.8588 47.5877 66.004 50.0031C61.7816 50.0719 57.7514 51.7799 54.7654 54.766C51.7794 57.7522 50.0716 61.7825 50.0032 66.0049ZM66.25 80C63.5306 80 60.8721 79.1936 58.611 77.6827C56.3498 76.1719 54.5874 74.0244 53.5467 71.5119C52.506 68.9994 52.2337 66.2348 52.7643 63.5675C53.2948 60.9003 54.6044 58.4503 56.5273 56.5273C58.4503 54.6043 60.9003 53.2948 63.5676 52.7642C66.2348 52.2337 68.9995 52.506 71.5119 53.5467C74.0244 54.5874 76.1719 56.3498 77.6828 58.6109C79.1936 60.8721 80 63.5305 80 66.25C79.9959 69.8955 78.5459 73.3904 75.9682 75.9682C73.3905 78.5459 69.8955 79.9959 66.25 80Z" fill="#3E596C"/>
<path d="M70.3742 61.3743L64.6502 67.0983L64.2595 66.7076C64.008 66.4647 63.6712 66.3303 63.3216 66.3334C62.972 66.3364 62.6376 66.4766 62.3904 66.7239C62.1432 66.9711 62.003 67.3055 61.9999 67.6551C61.9969 68.0047 62.1313 68.3415 62.3742 68.593L63.7075 69.9263C63.9575 70.1762 64.2966 70.3167 64.6502 70.3167C65.0037 70.3167 65.3428 70.1762 65.5928 69.9263L72.2595 63.2596C72.5024 63.0081 72.6368 62.6713 72.6337 62.3217C72.6307 61.9722 72.4905 61.6377 72.2433 61.3905C71.996 61.1433 71.6616 61.0031 71.312 61.0001C70.9624 60.997 70.6256 61.1314 70.3742 61.3743Z" fill="#59C49E"/>
</svg>
