<svg width="90" height="90" viewBox="0 0 90 90" fill="none" xmlns="http://www.w3.org/2000/svg">
<rect width="90" height="90" rx="45" fill="white"/>
<g clip-path="url(#clip0_569_5)">
<path d="M83.9019 38.8773C82.504 38.8753 81.1479 39.3542 80.0611 40.2337C78.9743 41.1133 78.2229 42.34 77.9329 43.708H69.7636C69.467 37.9958 67.1954 32.5643 63.3373 28.3427L69.1296 22.5584C70.3768 23.3844 71.8853 23.7198 73.3649 23.5003C74.8445 23.2808 76.1907 22.5218 77.1447 21.3693C78.0986 20.2168 78.5929 18.7521 78.5326 17.257C78.4722 15.7619 77.8614 14.3419 76.8177 13.27C75.7739 12.1982 74.3709 11.5503 72.8784 11.4509C71.386 11.3514 69.9095 11.8075 68.7328 12.7314C67.5562 13.6553 66.7626 14.9817 66.5046 16.4556C66.2466 17.9295 66.5424 19.4468 67.3351 20.7157L61.504 26.5491C57.2552 22.7417 51.8193 20.524 46.1207 20.2733V12.0948C47.6001 11.8214 48.9261 11.0104 49.8438 9.81788C50.7614 8.62532 51.2059 7.13542 51.0916 5.6348C50.9772 4.13418 50.3123 2.72884 49.2246 1.68915C48.1369 0.649452 46.7033 0.0488377 45.1996 0.00285012C43.696 -0.0431375 42.2284 0.46875 41.0792 1.44004C39.9301 2.41132 39.1806 3.7734 38.9749 5.26423C38.7691 6.75506 39.1217 8.26934 39.9649 9.51575C40.808 10.7622 42.082 11.6527 43.542 12.0159V20.2925C37.897 20.6251 32.5372 22.8863 28.3588 26.698L22.571 20.9081C23.4132 19.6615 23.7648 18.1475 23.5583 16.6572C23.3517 15.1669 22.6016 13.8056 21.4522 12.8353C20.3029 11.8649 18.8354 11.354 17.3321 11.4009C15.8289 11.4477 14.396 12.049 13.3093 13.089C12.2225 14.1291 11.5585 15.5344 11.4451 17.0347C11.3317 18.5349 11.7768 20.0242 12.6949 21.2159C13.613 22.4076 14.9392 23.2176 16.4183 23.4901C17.8974 23.7625 19.425 23.4782 20.7071 22.6918L26.544 28.5108C22.7324 32.7555 20.5112 38.1919 20.2595 43.8923H12.1323C11.8634 42.4919 11.1189 41.2276 10.0248 40.3136C8.93075 39.3996 7.55443 38.8922 6.12912 38.8773C5.32582 38.8728 4.52958 39.0273 3.78616 39.3318C3.04274 39.6362 2.36681 40.0847 1.79723 40.6514C1.22764 41.2181 0.775643 41.8918 0.467212 42.6338C0.15878 43.3758 0 44.1715 0 44.9751C0 45.7787 0.15878 46.5744 0.467212 47.3164C0.775643 48.0585 1.22764 48.7322 1.79723 49.2988C2.36681 49.8655 3.04274 50.314 3.78616 50.6185C4.52958 50.9229 5.32582 51.0774 6.12912 51.073C7.49022 51.0931 8.81745 50.6481 9.89158 49.8115C10.9657 48.975 11.7225 47.797 12.0368 46.472H20.2791C20.5948 52.115 22.8469 57.4762 26.6552 61.651L20.9015 67.4171C19.6429 66.5704 18.1157 66.2195 16.614 66.4318C15.1122 66.6441 13.7421 67.4047 12.7673 68.5671C11.7925 69.7295 11.282 71.2115 11.3341 72.7279C11.3862 74.2442 11.9971 75.6877 13.0494 76.7804C14.1016 77.8731 15.5207 78.5378 17.0335 78.6465C18.5462 78.7552 20.0457 78.3003 21.2433 77.3692C22.4408 76.4382 23.2517 75.0969 23.5199 73.6035C23.7881 72.1102 23.4946 70.5704 22.6959 69.2806L28.4841 63.4902C32.6917 67.2783 38.073 69.5046 43.7262 69.796V77.9372C42.2551 78.2556 40.9538 79.1069 40.0725 80.3273C39.1911 81.5478 38.7921 83.0512 38.9521 84.5483C39.1121 86.0453 39.8199 87.4303 40.9393 88.4368C42.0586 89.4432 43.5105 90 45.0155 90C46.5206 90 47.9724 89.4432 49.0918 88.4368C50.2112 87.4303 50.9189 86.0453 51.079 84.5483C51.239 83.0512 50.8399 81.5478 49.9586 80.3273C49.0773 79.1069 47.7759 78.2556 46.3049 77.9372V69.796C52.0075 69.5022 57.432 67.24 61.6545 63.3945L67.4138 69.1562C66.587 70.4149 66.2547 71.9351 66.4809 73.4242C66.707 74.9133 67.4757 76.2661 68.639 77.2224C69.8022 78.1786 71.2779 78.6707 72.782 78.604C74.2862 78.5373 75.7125 77.9165 76.7866 76.861C77.8607 75.8055 78.5067 74.39 78.6003 72.8867C78.6938 71.3834 78.2284 69.8986 77.2934 68.718C76.3585 67.5374 75.0202 66.7444 73.5359 66.4915C72.0517 66.2387 70.5264 66.5438 69.2535 67.3483L63.472 61.5432C67.2622 57.3342 69.4844 51.9458 69.7636 46.2877H77.9517C78.1991 47.4107 78.7589 48.4408 79.5664 49.2592C80.3739 50.0775 81.3963 50.6508 82.5155 50.9128C83.6348 51.1748 84.8053 51.1148 85.8919 50.7399C86.9786 50.365 87.9371 49.6903 88.6569 48.7937C89.3767 47.8972 89.8284 46.8153 89.96 45.6729C90.0915 44.5306 89.8974 43.3743 89.4002 42.3375C88.903 41.3007 88.1229 40.4257 87.1499 39.8135C86.1769 39.2012 85.0507 38.8767 83.9012 38.8773H83.9019ZM70.0238 15.0012C70.6838 14.341 71.5789 13.9701 72.5122 13.97C73.4455 13.97 74.3407 14.3409 75.0006 15.0011C75.6606 15.6613 76.0314 16.5567 76.0315 17.4904C76.0315 18.4241 75.6608 19.3195 75.0008 19.9798C74.6748 20.3098 74.2867 20.5722 73.8589 20.7516C73.4311 20.9311 72.972 21.0242 72.5081 21.0256C72.0443 21.027 71.5847 20.9366 71.1558 20.7596C70.727 20.5827 70.3373 20.3226 70.0093 19.9945C69.6813 19.6664 69.4213 19.2766 69.2444 18.8476C69.0675 18.4186 68.9772 17.9588 68.9785 17.4948C68.9799 17.0307 69.0729 16.5715 69.2523 16.1435C69.4317 15.7155 69.6939 15.3275 70.0238 15.0012ZM20.0072 19.9798C19.515 20.4722 18.888 20.8075 18.2053 20.9434C17.5226 21.0793 16.815 21.0096 16.1719 20.7432C15.5288 20.4767 14.9791 20.0255 14.5924 19.4465C14.2057 18.8675 13.9993 18.1868 13.9993 17.4905C13.9993 16.7942 14.2057 16.1135 14.5924 15.5345C14.9791 14.9555 15.5288 14.5043 16.1719 14.2378C16.815 13.9714 17.5226 13.9017 18.2053 14.0376C18.888 14.1735 19.515 14.5088 20.0072 15.0012C20.3341 15.3281 20.5934 15.7161 20.7703 16.1433C20.9472 16.5704 21.0382 17.0282 21.0382 17.4905C21.0382 17.9528 20.9472 18.4106 20.7703 18.8378C20.5934 19.2649 20.3341 19.6529 20.0072 19.9798ZM6.12912 48.5185C5.43308 48.5184 4.75269 48.3119 4.17397 47.9251C3.59526 47.5382 3.14422 46.9883 2.87788 46.345C2.61154 45.7017 2.54188 44.9938 2.67769 44.3109C2.8135 43.628 3.14869 43.0007 3.64088 42.5084C4.13306 42.016 4.76013 41.6807 5.44279 41.5449C6.12546 41.4091 6.83305 41.4788 7.4761 41.7453C8.11915 42.0117 8.66877 42.463 9.05546 43.042C9.44216 43.6209 9.64855 44.3016 9.64855 44.9979C9.64748 45.9313 9.27633 46.8262 8.61654 47.4862C7.95674 48.1462 7.06218 48.5174 6.12912 48.5185ZM20.0072 74.9945C19.6804 75.3214 19.2925 75.5808 18.8655 75.7577C18.4386 75.9346 17.981 76.0257 17.5188 76.0257C17.0567 76.0257 16.5991 75.9347 16.1721 75.7578C15.7451 75.5809 15.3572 75.3216 15.0304 74.9947C14.7036 74.6678 14.4444 74.2797 14.2675 73.8526C14.0906 73.4255 13.9996 72.9677 13.9996 72.5054C13.9996 72.0431 14.0906 71.5853 14.2674 71.1581C14.4442 70.731 14.7034 70.3429 15.0302 70.016C15.6671 69.3777 16.525 69.0089 17.4262 68.986C18.3274 68.963 19.2029 69.2877 19.8714 69.8927C19.9644 70.0388 20.0863 70.1642 20.2297 70.2612C20.7884 70.9363 21.0752 71.7956 21.0341 72.671C20.9929 73.5465 20.6268 74.3751 20.0072 74.9947V74.9945ZM70.0238 70.016C70.516 69.5236 71.1431 69.1882 71.8258 69.0523C72.5084 68.9164 73.2161 68.9861 73.8592 69.2526C74.5023 69.519 75.0519 69.9703 75.4386 70.5492C75.8254 71.1282 76.0318 71.8089 76.0318 72.5052C76.0318 73.2016 75.8254 73.8823 75.4386 74.4612C75.0519 75.0402 74.5023 75.4915 73.8592 75.7579C73.2161 76.0244 72.5084 76.094 71.8258 75.9582C71.1431 75.8223 70.516 75.4869 70.0238 74.9945C69.697 74.6677 69.4377 74.2796 69.2608 73.8525C69.0839 73.4254 68.9928 72.9676 68.9928 72.5052C68.9928 72.0429 69.0839 71.5851 69.2608 71.158C69.4377 70.7309 69.697 70.3428 70.0238 70.016ZM41.4963 6.09673C41.4963 5.40042 41.7027 4.71975 42.0894 4.14079C42.4761 3.56183 43.0257 3.11058 43.6688 2.84412C44.3118 2.57765 45.0194 2.50793 45.7021 2.64378C46.3848 2.77962 47.0118 3.11492 47.504 3.60729C47.9962 4.09965 48.3314 4.72697 48.4672 5.4099C48.603 6.09283 48.5333 6.8007 48.2669 7.44401C48.0005 8.08731 47.5495 8.63716 46.9707 9.02401C46.392 9.41086 45.7116 9.61734 45.0155 9.61734C44.0825 9.61621 43.188 9.24493 42.5283 8.58494C41.8685 7.92494 41.4974 7.03011 41.4963 6.09673ZM48.5348 83.899C48.5355 84.5844 48.3361 85.2551 47.9613 85.8288C47.5864 86.4026 47.0522 86.8543 46.4244 87.1287C45.7965 87.4031 45.1023 87.4882 44.4268 87.3735C43.7513 87.2589 43.1239 86.9494 42.6217 86.4832C42.1195 86.017 41.7642 85.4143 41.5995 84.7489C41.4348 84.0836 41.4678 83.3847 41.6944 82.7379C41.9211 82.091 42.3315 81.5245 42.8755 81.1077C43.4194 80.6909 44.0731 80.442 44.7564 80.3915C44.9274 80.4264 45.1037 80.4264 45.2747 80.3915C46.16 80.4574 46.9877 80.8554 47.5922 81.5058C48.1967 82.1562 48.5334 83.0109 48.5348 83.899ZM45.0155 67.2496C40.6243 67.2496 36.3316 65.9469 32.6804 63.5063C29.0292 61.0657 26.1834 57.5968 24.503 53.5383C22.8225 49.4797 22.3828 45.0138 23.2395 40.7052C24.0962 36.3967 26.2108 32.439 29.3159 29.3327C32.421 26.2265 36.3771 24.1111 40.684 23.254C44.9909 22.397 49.4551 22.8369 53.5121 24.518C57.5691 26.1991 61.0367 29.0459 63.4764 32.6986C65.916 36.3512 67.2182 40.6455 67.2182 45.0384C67.2115 50.9271 64.8702 56.5728 60.7078 60.7368C56.5455 64.9007 50.902 67.2429 45.0155 67.2496ZM83.9019 48.5185C83.2059 48.5185 82.5255 48.312 81.9467 47.9251C81.368 47.5383 80.9169 46.9885 80.6506 46.3452C80.3842 45.7018 80.3145 44.994 80.4503 44.311C80.5861 43.6281 80.9213 43.0008 81.4134 42.5084C81.9056 42.0161 82.5327 41.6808 83.2154 41.5449C83.898 41.4091 84.6056 41.4788 85.2487 41.7453C85.8918 42.0117 86.4414 42.463 86.8281 43.0419C87.2148 43.6209 87.4212 44.3016 87.4212 44.9979C87.4201 45.9313 87.049 46.8261 86.3892 47.4861C85.7295 48.1461 84.835 48.5174 83.9019 48.5185Z" fill="#3E596C"/>
<path d="M61.3161 35.01L45.6839 26.1793C45.476 26.0618 45.2401 26 45 26C44.7599 26 44.524 26.0618 44.3161 26.1793L28.6839 35.01C28.476 35.1274 28.3033 35.2964 28.1832 35.4999C28.0632 35.7034 28 35.9342 28 36.1692V53.8308C28 54.0658 28.0632 54.2966 28.1832 54.5001C28.3033 54.7036 28.476 54.8726 28.6839 54.99L44.3161 63.8207C44.524 63.9382 44.7599 64 45 64C45.2401 64 45.476 63.9382 45.6839 63.8207L61.3161 54.99C61.524 54.8726 61.6967 54.7036 61.8168 54.5001C61.9368 54.2966 62 54.0658 62 53.8308V36.1692C62 35.9342 61.9368 35.7034 61.8168 35.4999C61.6967 35.2964 61.524 35.1274 61.3161 35.01ZM45 28.8837L49.9261 31.6664L37.0305 38.9508L32.1044 36.168L45 28.8837ZM43.6322 60.3437L30.7356 53.0582V38.486L43.6322 45.7717V60.3437ZM45 43.4534L39.7661 40.4968L52.6617 33.2124L57.8966 36.1684L45 43.4534ZM59.2644 53.0582L46.3678 60.3437V45.7717L59.2644 38.486V53.0582Z" fill="#59C49E"/>
</g>
<defs>
<clipPath id="clip0_569_5">
<rect width="90" height="90" fill="white"/>
</clipPath>
</defs>
</svg>
